<?xml version="1.0" encoding="us-ascii" standalone="no"?><svg xmlns="http://www.w3.org/2000/svg" xmlns:xlink="http://www.w3.org/1999/xlink" contentStyleType="text/css" height="1108px" preserveAspectRatio="none" style="width:650px;height:1108px;background:#FFFFFF;" version="1.1" viewBox="0 0 650 1108" width="650px" zoomAndPan="magnify"><defs/><g><!--cluster ??????? ????????? CarWasher--><g id="cluster_&#1057;&#1080;&#1089;&#1090;&#1077;&#1084;&#1072; &#1072;&#1074;&#1090;&#1086;&#1084;&#1086;&#1081;&#1082;&#1080; CarWasher"><rect fill="none" height="1095" rx="2.5" ry="2.5" style="stroke:#181818;stroke-width:1.0;" width="307" x="157" y="7"/><text fill="#000000" font-family="sans-serif" font-size="14" font-weight="bold" lengthAdjust="spacing" textLength="223" x="199" y="23.5332">&#1057;&#1080;&#1089;&#1090;&#1077;&#1084;&#1072; &#1072;&#1074;&#1090;&#1086;&#1084;&#1086;&#1081;&#1082;&#1080; CarWasher</text></g><g id="elem_UC1"><ellipse cx="310.4138" cy="418.8828" fill="#F1F1F1" rx="137.4138" ry="29.8828" style="stroke:#181818;stroke-width:0.5;"/><text fill="#000000" font-family="sans-serif" font-size="14" lengthAdjust="spacing" textLength="242" x="189.4138" y="422.6113">US_AD1: &#1056;&#1077;&#1075;&#1080;&#1089;&#1090;&#1088;&#1072;&#1094;&#1080;&#1103; &#1087;&#1086;&#1083;&#1100;&#1079;&#1086;&#1074;&#1072;&#1090;&#1077;&#1083;&#1103;</text></g><g id="elem_UC2"><ellipse cx="310.3204" cy="308.0641" fill="#F1F1F1" rx="130.8204" ry="28.5641" style="stroke:#181818;stroke-width:0.5;"/><text fill="#000000" font-family="sans-serif" font-size="14" lengthAdjust="spacing" textLength="228" x="196.3204" y="311.7926">&#1055;&#1086;&#1076;&#1090;&#1074;&#1077;&#1088;&#1078;&#1076;&#1077;&#1085;&#1080;&#1077; &#1085;&#1086;&#1084;&#1077;&#1088;&#1072; &#1090;&#1077;&#1083;&#1077;&#1092;&#1086;&#1085;&#1072;</text></g><g id="elem_UC21"><ellipse cx="310.3069" cy="70.1614" fill="#F1F1F1" rx="123.8069" ry="27.1614" style="stroke:#181818;stroke-width:0.5;"/><text fill="#000000" font-family="sans-serif" font-size="14" lengthAdjust="spacing" textLength="213" x="203.8069" y="73.8899">&#1054;&#1096;&#1080;&#1073;&#1082;&#1072; &#1087;&#1086;&#1076;&#1090;&#1074;&#1077;&#1088;&#1078;&#1076;&#1077;&#1085;&#1080;&#1103; &#1085;&#1086;&#1084;&#1077;&#1088;&#1072;</text></g><g id="elem_UC3"><ellipse cx="310.2982" cy="734.7596" fill="#F1F1F1" rx="106.7982" ry="23.7596" style="stroke:#181818;stroke-width:0.5;"/><text fill="#000000" font-family="sans-serif" font-size="14" lengthAdjust="spacing" textLength="176" x="222.2982" y="738.4882">US_S01: &#1042;&#1099;&#1073;&#1086;&#1088; &#1072;&#1074;&#1090;&#1086;&#1084;&#1086;&#1081;&#1082;&#1080;</text></g><g id="elem_UC4"><ellipse cx="310.5677" cy="501.2135" fill="#F1F1F1" rx="71.5677" ry="16.7135" style="stroke:#181818;stroke-width:0.5;"/><text fill="#000000" font-family="sans-serif" font-size="14" lengthAdjust="spacing" textLength="92" x="261.5677" y="505.7301">&#1042;&#1099;&#1073;&#1086;&#1088; &#1075;&#1086;&#1088;&#1086;&#1076;&#1072;</text></g><g id="elem_UC5"><ellipse cx="310.2859" cy="569.8572" fill="#F1F1F1" rx="72.2859" ry="16.8572" style="stroke:#181818;stroke-width:0.5;"/><text fill="#000000" font-family="sans-serif" font-size="14" lengthAdjust="spacing" textLength="94" x="260.2859" y="574.3738">&#1042;&#1099;&#1073;&#1086;&#1088; &#1072;&#1076;&#1088;&#1077;&#1089;&#1072;</text></g><g id="elem_UC6"><ellipse cx="310.6819" cy="640.1364" fill="#F1F1F1" rx="78.6819" ry="18.1364" style="stroke:#181818;stroke-width:0.5;"/><text fill="#000000" font-family="sans-serif" font-size="14" lengthAdjust="spacing" textLength="111" x="253.5947" y="644.3083">&#1042;&#1099;&#1073;&#1086;&#1088; &#1087;&#1086; &#1087;&#1086;&#1080;&#1089;&#1082;&#1091;</text></g><g id="elem_UC7"><ellipse cx="310.3945" cy="1063.8789" fill="#F1F1F1" rx="97.3945" ry="21.8789" style="stroke:#181818;stroke-width:0.5;"/><text fill="#000000" font-family="sans-serif" font-size="14" lengthAdjust="spacing" textLength="155" x="232.8945" y="1067.6074">US_P01: &#1054;&#1087;&#1083;&#1072;&#1090;&#1072; &#1091;&#1089;&#1083;&#1091;&#1075;&#1080;</text></g><g id="elem_UC71"><ellipse cx="310.4051" cy="973.97" fill="#F1F1F1" rx="46.9051" ry="15.47" style="stroke:#181818;stroke-width:0.5;"/><text fill="#000000" font-family="sans-serif" font-size="14" lengthAdjust="spacing" textLength="50" x="283.7227" y="978.1764">&#1054;&#1087;&#1083;&#1072;&#1090;&#1072;</text></g><g id="elem_UC8"><ellipse cx="310.4525" cy="815.7905" fill="#F1F1F1" rx="96.9525" ry="21.7905" style="stroke:#181818;stroke-width:0.5;"/><text fill="#000000" font-family="sans-serif" font-size="14" lengthAdjust="spacing" textLength="154" x="233.4525" y="819.519">&#1042;&#1099;&#1073;&#1086;&#1088; &#1089;&#1087;&#1086;&#1089;&#1086;&#1073;&#1072; &#1086;&#1087;&#1083;&#1072;&#1090;&#1099;</text></g><g id="elem_UC9"><ellipse cx="310.304" cy="897.7608" fill="#F1F1F1" rx="111.804" ry="24.7608" style="stroke:#181818;stroke-width:0.5;"/><text fill="#000000" font-family="sans-serif" font-size="14" lengthAdjust="spacing" textLength="187" x="216.804" y="901.4893">&#1055;&#1088;&#1077;&#1076;&#1086;&#1089;&#1090;&#1072;&#1074;&#1083;&#1077;&#1085;&#1080;&#1077; &#1089;&#1090;&#1072;&#1090;&#1080;&#1089;&#1090;&#1080;&#1082;&#1080;</text></g><g id="elem_UC10"><ellipse cx="310.337" cy="153.9674" fill="#F1F1F1" rx="97.837" ry="21.9674" style="stroke:#181818;stroke-width:0.5;"/><text fill="#000000" font-family="sans-serif" font-size="14" lengthAdjust="spacing" textLength="156" x="232.337" y="157.6959">&#1054;&#1090;&#1086;&#1073;&#1088;&#1072;&#1078;&#1077;&#1085;&#1080;&#1077; &#1075;&#1088;&#1072;&#1092;&#1080;&#1082;&#1086;&#1074;</text></g><g id="elem_UC11"><ellipse cx="310.7113" cy="228.1423" fill="#F1F1F1" rx="71.2113" ry="16.6423" style="stroke:#181818;stroke-width:0.5;"/><text fill="#000000" font-family="sans-serif" font-size="14" lengthAdjust="spacing" textLength="91" x="262.2113" y="232.6589">&#1042;&#1099;&#1075;&#1088;&#1091;&#1079;&#1082;&#1072; CSV</text></g><!--entity Client--><g id="elem_Client"><ellipse cx="37" cy="840.5" fill="#F1F1F1" rx="8" ry="8" style="stroke:#181818;stroke-width:0.5;"/><path d="M37,848.5 L37,875.5 M24,856.5 L50,856.5 M37,875.5 L24,890.5 M37,875.5 L50,890.5 " fill="none" style="stroke:#181818;stroke-width:0.5;"/><text fill="#000000" font-family="sans-serif" font-size="14" lengthAdjust="spacing" textLength="47" x="13.5" y="906.5332">&#1050;&#1083;&#1080;&#1077;&#1085;&#1090;</text></g><!--entity Director--><g id="elem_Director"><ellipse cx="37" cy="953.5" fill="#F1F1F1" rx="8" ry="8" style="stroke:#181818;stroke-width:0.5;"/><path d="M37,961.5 L37,988.5 M24,969.5 L50,969.5 M37,988.5 L24,1003.5 M37,988.5 L50,1003.5 " fill="none" style="stroke:#181818;stroke-width:0.5;"/><text fill="#000000" font-family="sans-serif" font-size="14" lengthAdjust="spacing" textLength="62" x="6" y="1019.5332">&#1044;&#1080;&#1088;&#1077;&#1082;&#1090;&#1086;&#1088;</text></g><!--entity SMS--><g id="elem_SMS"><ellipse cx="577" cy="277.5" fill="#F1F1F1" rx="8" ry="8" style="stroke:#181818;stroke-width:0.5;"/><path d="M577,285.5 L577,312.5 M564,293.5 L590,293.5 M577,312.5 L564,327.5 M577,312.5 L590,327.5 " fill="none" style="stroke:#181818;stroke-width:0.5;"/><text fill="#000000" font-family="sans-serif" font-size="14" lengthAdjust="spacing" textLength="71" x="541.5" y="343.5332">&#1057;&#1052;&#1057; &#1096;&#1083;&#1102;&#1079;</text></g><!--entity PaymentSystem--><g id="elem_PaymentSystem"><ellipse cx="577" cy="887.5" fill="#F1F1F1" rx="8" ry="8" style="stroke:#181818;stroke-width:0.5;"/><path d="M577,895.5 L577,922.5 M564,903.5 L590,903.5 M577,922.5 L564,937.5 M577,922.5 L590,937.5 " fill="none" style="stroke:#181818;stroke-width:0.5;"/><text fill="#000000" font-family="sans-serif" font-size="14" lengthAdjust="spacing" textLength="132" x="511" y="953.5332">&#1055;&#1083;&#1072;&#1090;&#1105;&#1078;&#1085;&#1072;&#1103; &#1089;&#1080;&#1089;&#1090;&#1077;&#1084;&#1072;</text></g><!--entity System1C--><g id="elem_System1C"><ellipse cx="577" cy="1000.5" fill="#F1F1F1" rx="8" ry="8" style="stroke:#181818;stroke-width:0.5;"/><path d="M577,1008.5 L577,1035.5 M564,1016.5 L590,1016.5 M577,1035.5 L564,1050.5 M577,1035.5 L590,1050.5 " fill="none" style="stroke:#181818;stroke-width:0.5;"/><text fill="#000000" font-family="sans-serif" font-size="14" lengthAdjust="spacing" textLength="77" x="538.5" y="1066.5332">1&#1057; &#1089;&#1080;&#1089;&#1090;&#1077;&#1084;&#1072;</text></g><!--link Client to UC1--><g id="link_Client_UC1"><path d="M38.95,831.83 C41.85,743.99 53.4,534.88 98,483 C120.45,456.89 147.3767,442.8535 180.3867,433.5135 " fill="none" id="Client-to-UC1" style="stroke:#181818;stroke-width:1.0;"/><polygon fill="#181818" points="186.16,431.88,176.411,430.4814,181.3489,433.2413,178.589,438.1792,186.16,431.88" style="stroke:#181818;stroke-width:1.0;"/></g><!--link Client to UC3--><g id="link_Client_UC3"><path d="M60.82,875.18 C84.41,878.06 120.58,878.18 141,857 C153.55,843.98 137.22,789.72 149,776 C163.99,758.55 179.5052,749.6284 201.7052,743.3684 " fill="none" id="Client-to-UC3" style="stroke:#181818;stroke-width:1.0;"/><polygon fill="#181818" points="207.48,741.74,197.7322,740.3327,202.6677,743.097,199.9034,748.0325,207.48,741.74" style="stroke:#181818;stroke-width:1.0;"/></g><!--link Client to UC7--><g id="link_Client_UC7"><path d="M60.51,908.71 C80.37,939.07 111.88,980.85 149,1007 C176.32,1026.24 205.039,1037.8995 235.029,1046.8195 " fill="none" id="Client-to-UC7" style="stroke:#181818;stroke-width:1.0;"/><polygon fill="#181818" points="240.78,1048.53,233.2938,1042.1302,235.9875,1047.1046,231.0131,1049.7982,240.78,1048.53" style="stroke:#181818;stroke-width:1.0;"/></g><!--link Director to UC9--><g id="link_Director_UC9"><path d="M68.3,971.24 C90.44,962.17 121.3,950.05 149,941 C176.56,932 201.4153,924.9582 228.4853,917.8782 " fill="none" id="Director-to-UC9" style="stroke:#181818;stroke-width:1.0;"/><polygon fill="#181818" points="234.29,916.36,224.5707,914.7675,229.4527,917.6252,226.595,922.5071,234.29,916.36" style="stroke:#181818;stroke-width:1.0;"/></g><!--link UC9 to UC10--><g id="link_UC9_UC10"><path d="M208.22,887.59 C186.41,881.09 165.12,870.89 149,855 C120.13,826.54 128.29,806.54 129,766 C131.22,638.83 68.88,292.78 149,194 C164.92,174.37 182.9921,164.8752 207.5621,159.0452 " fill="none" id="UC9-to-UC10" style="stroke:#181818;stroke-width:1.0;stroke-dasharray:7.0,7.0;"/><polygon fill="#181818" points="213.4,157.66,203.7197,155.8459,208.5351,158.8144,205.5666,163.6298,213.4,157.66" style="stroke:#181818;stroke-width:1.0;"/><text fill="#000000" font-family="sans-serif" font-size="13" lengthAdjust="spacing" textLength="41" x="99" y="780.4951">include</text></g><!--link UC9 to UC11--><g id="link_UC9_UC11"><path d="M204.75,889.72 C183.36,883.1 163.12,872.31 149,855 C97.8,792.22 125.47,571.93 129,491 C133.45,388.93 81.23,338.46 149,262 C171.62,236.48 202.1172,227.7936 234.6972,225.3236 " fill="none" id="UC9-to-UC11" style="stroke:#181818;stroke-width:1.0;stroke-dasharray:7.0,7.0;"/><polygon fill="#181818" points="240.68,224.87,231.4034,221.5618,235.6943,225.248,232.0081,229.5389,240.68,224.87" style="stroke:#181818;stroke-width:1.0;"/><text fill="#000000" font-family="sans-serif" font-size="13" lengthAdjust="spacing" textLength="41" x="99" y="505.4951">include</text></g><!--link UC1 to UC2--><g id="link_UC1_UC2"><path d="M310.5,388.96 C310.5,372.65 310.5,358.6 310.5,342.53 " fill="none" id="UC1-to-UC2" style="stroke:#181818;stroke-width:1.0;stroke-dasharray:7.0,7.0;"/><polygon fill="#181818" points="310.5,336.53,306.5,345.53,310.5,341.53,314.5,345.53,310.5,336.53" style="stroke:#181818;stroke-width:1.0;"/><text fill="#000000" font-family="sans-serif" font-size="13" lengthAdjust="spacing" textLength="41" x="278" y="368.2451">include</text></g><!--link UC1 to UC21--><g id="link_UC1_UC21"><path d="M213.22,397.68 C189.1,388.04 165.47,374.11 149,354 C114.79,312.22 125.76,287.83 130,234 C134.24,180.17 112.95,154.2 149,114 C162.39,99.07 174.6359,90.9977 193.6459,84.2477 " fill="none" id="UC1-to-UC21" style="stroke:#181818;stroke-width:1.0;stroke-dasharray:7.0,7.0;"/><polygon fill="#181818" points="199.3,82.24,189.4804,81.482,194.5882,83.913,192.1572,89.0209,199.3,82.24" style="stroke:#181818;stroke-width:1.0;"/><text fill="#000000" font-family="sans-serif" font-size="13" lengthAdjust="spacing" textLength="39" x="100" y="248.4951">extend</text></g><!--link UC2 to SMS--><g id="link_UC2_SMS"><path d="M441.81,308 C478.59,308 509.56,308 535.35,308 " fill="none" id="UC2-to-SMS" style="stroke:#181818;stroke-width:1.0;"/><polygon fill="#181818" points="541.35,308,532.35,304,536.35,308,532.35,312,541.35,308" style="stroke:#181818;stroke-width:1.0;"/></g><!--link UC3 to UC4--><g id="link_UC3_UC4"><path d="M225.79,720.24 C197.83,711.43 168.85,697.38 149,675 C119.85,642.13 120.93,620.98 130,578 C134.32,557.56 132.77,548.16 149,535 C174.04,514.7 202.3046,506.4103 232.8046,502.6703 " fill="none" id="UC3-to-UC4" style="stroke:#181818;stroke-width:1.0;stroke-dasharray:7.0,7.0;"/><polygon fill="#181818" points="238.76,501.94,229.3401,499.0651,233.7972,502.5486,230.3138,507.0057,238.76,501.94" style="stroke:#181818;stroke-width:1.0;"/><text fill="#000000" font-family="sans-serif" font-size="13" lengthAdjust="spacing" textLength="39" x="100" y="592.4951">extend</text></g><!--link UC3 to UC5--><g id="link_UC3_UC5"><path d="M203.11,734.58 C175.15,728.9 147.88,717.28 130,695 C112.42,673.1 102.67,648.2 149,604 C172.53,581.55 200.9741,572.9685 231.9941,569.6485 " fill="none" id="UC3-to-UC5" style="stroke:#181818;stroke-width:1.0;stroke-dasharray:7.0,7.0;"/><polygon fill="#181818" points="237.96,569.01,228.5854,565.9905,232.9884,569.5421,229.4368,573.9451,237.96,569.01" style="stroke:#181818;stroke-width:1.0;"/><text fill="#000000" font-family="sans-serif" font-size="13" lengthAdjust="spacing" textLength="39" x="100" y="691.4951">extend</text></g><!--link UC3 to UC6--><g id="link_UC3_UC6"><path d="M310.5,710.54 C310.5,694.15 310.5,678.95 310.5,664.08 " fill="none" id="UC3-to-UC6" style="stroke:#181818;stroke-width:1.0;stroke-dasharray:7.0,7.0;"/><polygon fill="#181818" points="310.5,658.08,306.5,667.08,310.5,663.08,314.5,667.08,310.5,658.08" style="stroke:#181818;stroke-width:1.0;"/><text fill="#000000" font-family="sans-serif" font-size="13" lengthAdjust="spacing" textLength="39" x="279" y="689.9951">extend</text></g><!--link UC7 to UC8--><g id="link_UC7_UC8"><path d="M226.57,1052.69 C197.82,1044.59 168.12,1030.73 149,1007 C101.57,948.15 79.89,894.59 130,838 C154.17,810.7 187.2703,803.496 222.9103,803.876 " fill="none" id="UC7-to-UC8" style="stroke:#181818;stroke-width:1.0;stroke-dasharray:7.0,7.0;"/><polygon fill="#181818" points="228.91,803.94,219.9532,799.8443,223.9103,803.8867,219.8679,807.8438,228.91,803.94" style="stroke:#181818;stroke-width:1.0;"/><text fill="#000000" font-family="sans-serif" font-size="13" lengthAdjust="spacing" textLength="39" x="100" y="852.4951">extend</text></g><!--link UC7 to UC71--><g id="link_UC7_UC71"><path d="M310.5,1041.75 C310.5,1025.51 310.5,1009.91 310.5,995.5 " fill="none" id="UC7-to-UC71" style="stroke:#181818;stroke-width:1.0;stroke-dasharray:7.0,7.0;"/><polygon fill="#181818" points="310.5,989.5,306.5,998.5,310.5,994.5,314.5,998.5,310.5,989.5" style="stroke:#181818;stroke-width:1.0;"/><text fill="#000000" font-family="sans-serif" font-size="13" lengthAdjust="spacing" textLength="41" x="278" y="1021.2451">include</text></g><!--link UC71 to PaymentSystem--><g id="link_UC71_PaymentSystem"><path d="M350.53,965.74 C392.7,956.81 454.7502,943.6733 505.0302,933.0233 " fill="none" id="UC71-to-PaymentSystem" style="stroke:#181818;stroke-width:1.0;"/><polygon fill="#181818" points="510.9,931.78,501.2665,929.7318,506.0085,932.8161,502.9242,937.5581,510.9,931.78" style="stroke:#181818;stroke-width:1.0;"/></g><!--link UC71 to System1C--><g id="link_UC71_System1C"><path d="M350.24,982.35 C400.75,993.23 482.6547,1010.8858 532.5747,1021.6458 " fill="none" id="UC71-to-System1C" style="stroke:#181818;stroke-width:1.0;"/><polygon fill="#181818" points="538.44,1022.91,530.4849,1017.1034,533.5523,1021.8565,528.7992,1024.9238,538.44,1022.91" style="stroke:#181818;stroke-width:1.0;"/></g><!--SRC=[TLJBQjj05DtFLrooJudg94wo21HbMmW8jyiYRDKHiUKWAL1J2eaTIY6bfgMhKjBc3nG_OZUgtL-uyqSzCtf4Sko57dFct3FdFgIMypQai4E-spm9gU7wJZrqEvu8JbtlpFRjDftPzLExwLXXj-MGshQzPiiHmgw77Pys-0V7FEC9psLlW-o0p9RhU66-_PrdyWBR3xB72tcXAKVwc8wVasxv9z-I_CIn_C9JpR5UMldsBnmHoPxyolSynzk0v2LaBo4vuRySwO1Zkzl6mLOt29rs5ceesQVSX6IOGkG9QHS57d74G-KPYmN_uGUUaMdxh-tWnF4twBqWEW-SkXqWicQzUN5a713_HkmeKK7IaVo8zm7nFoZ4yZDFyHogJ42BvK1RgPb6KGgvBdWCnf0daBZdiIgjAZ3XeSmeEA940uihWFCqhPhvlAHrWuhE-0xUeyJ42c7bho2SwHXB-LbRAhzlyXfoQEEAwgIHbPA3Gi18FPI7_93jTTG8HZ4pQ5n6tLb7HLP9QYWwPgoVydUNx1zh-pTWwabI1UmZ89PzrQyqg5ektYCvspVMk80IBE2-081IBx9GUPs6xfLxhB-8iGfHycX9d7SvWN0bipWhb7P_gRcg_7UgQUXcFYGZFNXNEX3JbitOrXFh82BxgHuEqtgL4GtnGOZa6wRDpKCzdwLbfRoi2f5zpYcoBt3HiqFIvz81kLwzTTvmYh1HW84R2iVKbSWPgBZEkz3n6a9Hr27gvu159M5i5mafjhC2stt405OJSAz8JB6gKJA2fJgq_8F9uUnVyXy0]--></g></svg>