<?xml version="1.0" encoding="us-ascii" standalone="no"?><svg xmlns="http://www.w3.org/2000/svg" xmlns:xlink="http://www.w3.org/1999/xlink" contentStyleType="text/css" height="2041px" preserveAspectRatio="none" style="width:1864px;height:2041px;background:#FFFFFF;" version="1.1" viewBox="0 0 1864 2041" width="1864px" zoomAndPan="magnify"><defs/><g><rect fill="none" height="153.7578" style="stroke:#000000;stroke-width:1.5;" width="1142.5" x="177" y="1788.8359"/><rect fill="none" height="54.7031" style="stroke:#000000;stroke-width:1.5;" width="478.5" x="187" y="1880.8906"/><line style="stroke:#181818;stroke-width:0.5;stroke-dasharray:5.0,5.0;" x1="466" x2="466" y1="82.6094" y2="1959.5938"/><line style="stroke:#181818;stroke-width:0.5;stroke-dasharray:5.0,5.0;" x1="611.5" x2="611.5" y1="82.6094" y2="1959.5938"/><line style="stroke:#181818;stroke-width:0.5;stroke-dasharray:5.0,5.0;" x1="935" x2="935" y1="82.6094" y2="1959.5938"/><text fill="#000000" font-family="sans-serif" font-size="14" lengthAdjust="spacing" textLength="47" x="440" y="79.5332">&#1050;&#1083;&#1080;&#1077;&#1085;&#1090;</text><ellipse cx="466.5" cy="13.5" fill="#E2E2F0" rx="8" ry="8" style="stroke:#181818;stroke-width:0.5;"/><path d="M466.5,21.5 L466.5,48.5 M453.5,29.5 L479.5,29.5 M466.5,48.5 L453.5,63.5 M466.5,48.5 L479.5,63.5 " fill="none" style="stroke:#181818;stroke-width:0.5;"/><text fill="#000000" font-family="sans-serif" font-size="14" lengthAdjust="spacing" textLength="47" x="440" y="1973.127">&#1050;&#1083;&#1080;&#1077;&#1085;&#1090;</text><ellipse cx="466.5" cy="1984.7031" fill="#E2E2F0" rx="8" ry="8" style="stroke:#181818;stroke-width:0.5;"/><path d="M466.5,1992.7031 L466.5,2019.7031 M453.5,2000.7031 L479.5,2000.7031 M466.5,2019.7031 L453.5,2034.7031 M466.5,2019.7031 L479.5,2034.7031 " fill="none" style="stroke:#181818;stroke-width:0.5;"/><rect fill="#E2E2F0" height="31.6094" rx="2.5" ry="2.5" style="stroke:#181818;stroke-width:0.5;" width="88" x="567.5" y="50"/><text fill="#000000" font-family="sans-serif" font-size="14" lengthAdjust="spacing" textLength="74" x="574.5" y="71.5332">&#1057;&#1077;&#1088;&#1074;&#1077;&#1088; API</text><rect fill="#E2E2F0" height="31.6094" rx="2.5" ry="2.5" style="stroke:#181818;stroke-width:0.5;" width="88" x="567.5" y="1958.5938"/><text fill="#000000" font-family="sans-serif" font-size="14" lengthAdjust="spacing" textLength="74" x="574.5" y="1980.127">&#1057;&#1077;&#1088;&#1074;&#1077;&#1088; API</text><text fill="#000000" font-family="sans-serif" font-size="14" lengthAdjust="spacing" textLength="83" x="891" y="79.5332">&#1041;&#1072;&#1079;&#1072; &#1076;&#1072;&#1085;&#1085;&#1099;&#1093;</text><path d="M917.5,29 C917.5,19 935.5,19 935.5,19 C935.5,19 953.5,19 953.5,29 L953.5,55 C953.5,65 935.5,65 935.5,65 C935.5,65 917.5,65 917.5,55 L917.5,29 " fill="#E2E2F0" style="stroke:#181818;stroke-width:1.5;"/><path d="M917.5,29 C917.5,39 935.5,39 935.5,39 C935.5,39 953.5,39 953.5,29 " fill="none" style="stroke:#181818;stroke-width:1.5;"/><text fill="#000000" font-family="sans-serif" font-size="14" lengthAdjust="spacing" textLength="83" x="891" y="1973.127">&#1041;&#1072;&#1079;&#1072; &#1076;&#1072;&#1085;&#1085;&#1099;&#1093;</text><path d="M917.5,1986.2031 C917.5,1976.2031 935.5,1976.2031 935.5,1976.2031 C935.5,1976.2031 953.5,1976.2031 953.5,1986.2031 L953.5,2012.2031 C953.5,2022.2031 935.5,2022.2031 935.5,2022.2031 C935.5,2022.2031 917.5,2022.2031 917.5,2012.2031 L917.5,1986.2031 " fill="#E2E2F0" style="stroke:#181818;stroke-width:1.5;"/><path d="M917.5,1986.2031 C917.5,1996.2031 935.5,1996.2031 935.5,1996.2031 C935.5,1996.2031 953.5,1996.2031 953.5,1986.2031 " fill="none" style="stroke:#181818;stroke-width:1.5;"/><rect fill="#EEEEEE" height="3" style="stroke:#EEEEEE;stroke-width:1.0;" width="1857.5" x="0" y="113.7852"/><line style="stroke:#000000;stroke-width:1.0;" x1="0" x2="1857.5" y1="113.7852" y2="113.7852"/><line style="stroke:#000000;stroke-width:1.0;" x1="0" x2="1857.5" y1="116.7852" y2="116.7852"/><rect fill="#EEEEEE" height="24.3516" style="stroke:#000000;stroke-width:2.0;" width="199" x="829.25" y="102.6094"/><text fill="#000000" font-family="sans-serif" font-size="13" font-weight="bold" lengthAdjust="spacing" textLength="181" x="835.25" y="120.1045">&#1059;&#1089;&#1087;&#1077;&#1096;&#1085;&#1086;&#1077; &#1089;&#1086;&#1079;&#1076;&#1072;&#1085;&#1080;&#1077; &#1079;&#1072;&#1087;&#1080;&#1089;&#1080;</text><polygon fill="#181818" points="599.5,166.4883,609.5,170.4883,599.5,174.4883,603.5,170.4883" style="stroke:#181818;stroke-width:1.0;"/><line style="stroke:#181818;stroke-width:1.0;" x1="466.5" x2="605.5" y1="170.4883" y2="170.4883"/><text fill="#000000" font-family="sans-serif" font-size="13" lengthAdjust="spacing" textLength="121" x="473.5" y="165.6318">POST /appointments</text><path d="M616,141.9609 L616,183.9609 L1303,183.9609 L1303,151.9609 L1293,141.9609 L616,141.9609 " fill="#FEFFDD" style="stroke:#181818;stroke-width:0.5;"/><path d="M1293,141.9609 L1293,151.9609 L1303,151.9609 L1293,141.9609 " fill="#FEFFDD" style="stroke:#181818;stroke-width:0.5;"/><text fill="#000000" font-family="sans-serif" font-size="13" lengthAdjust="spacing" textLength="174" x="622" y="160.4561">Authorization: Bearer &lt;token&gt;</text><text fill="#000000" font-family="sans-serif" font-size="13" lengthAdjust="spacing" textLength="666" x="622" y="176.8076">{car_id: 123, service_id: 456, box_id: 789, car_wash_id: 1, scheduled_date: "2024-01-15", scheduled_time: "14:00"}</text><line style="stroke:#181818;stroke-width:1.0;" x1="611.5" x2="653.5" y1="212.0156" y2="212.0156"/><line style="stroke:#181818;stroke-width:1.0;" x1="653.5" x2="653.5" y1="212.0156" y2="225.0156"/><line style="stroke:#181818;stroke-width:1.0;" x1="612.5" x2="653.5" y1="225.0156" y2="225.0156"/><polygon fill="#181818" points="622.5,221.0156,612.5,225.0156,622.5,229.0156,618.5,225.0156" style="stroke:#181818;stroke-width:1.0;"/><text fill="#000000" font-family="sans-serif" font-size="13" lengthAdjust="spacing" textLength="139" x="618.5" y="207.1592">&#1042;&#1072;&#1083;&#1080;&#1076;&#1072;&#1094;&#1080;&#1103; JWT &#1090;&#1086;&#1082;&#1077;&#1085;&#1072;</text><path d="M769,198.1641 L769,224.1641 L967,224.1641 L967,208.1641 L957,198.1641 L769,198.1641 " fill="#FEFFDD" style="stroke:#181818;stroke-width:0.5;"/><path d="M957,198.1641 L957,208.1641 L967,208.1641 L957,198.1641 " fill="#FEFFDD" style="stroke:#181818;stroke-width:0.5;"/><text fill="#000000" font-family="sans-serif" font-size="13" lengthAdjust="spacing" textLength="177" x="775" y="216.6592">&#1048;&#1079;&#1074;&#1083;&#1077;&#1095;&#1077;&#1085;&#1080;&#1077; user_id &#1080;&#1079; &#1090;&#1086;&#1082;&#1077;&#1085;&#1072;</text><line style="stroke:#181818;stroke-width:1.0;" x1="611.5" x2="653.5" y1="255.3672" y2="255.3672"/><line style="stroke:#181818;stroke-width:1.0;" x1="653.5" x2="653.5" y1="255.3672" y2="268.3672"/><line style="stroke:#181818;stroke-width:1.0;" x1="612.5" x2="653.5" y1="268.3672" y2="268.3672"/><polygon fill="#181818" points="622.5,264.3672,612.5,268.3672,622.5,272.3672,618.5,268.3672" style="stroke:#181818;stroke-width:1.0;"/><text fill="#000000" font-family="sans-serif" font-size="13" lengthAdjust="spacing" textLength="171" x="618.5" y="250.5107">&#1042;&#1072;&#1083;&#1080;&#1076;&#1072;&#1094;&#1080;&#1103; &#1074;&#1093;&#1086;&#1076;&#1085;&#1099;&#1093; &#1076;&#1072;&#1085;&#1085;&#1099;&#1093;</text><path d="M801,241.5156 L801,267.5156 L1151,267.5156 L1151,251.5156 L1141,241.5156 L801,241.5156 " fill="#FEFFDD" style="stroke:#181818;stroke-width:0.5;"/><path d="M1141,241.5156 L1141,251.5156 L1151,251.5156 L1141,241.5156 " fill="#FEFFDD" style="stroke:#181818;stroke-width:0.5;"/><text fill="#000000" font-family="sans-serif" font-size="13" lengthAdjust="spacing" textLength="329" x="807" y="260.0107">&#1055;&#1088;&#1086;&#1074;&#1077;&#1088;&#1082;&#1072; &#1092;&#1086;&#1088;&#1084;&#1072;&#1090;&#1086;&#1074; &#1076;&#1072;&#1090;&#1099;, &#1074;&#1088;&#1077;&#1084;&#1077;&#1085;&#1080;, &#1089;&#1091;&#1097;&#1077;&#1089;&#1090;&#1074;&#1086;&#1074;&#1072;&#1085;&#1080;&#1103; ID</text><polygon fill="#181818" points="923.5,297.7188,933.5,301.7188,923.5,305.7188,927.5,301.7188" style="stroke:#181818;stroke-width:1.0;"/><line style="stroke:#181818;stroke-width:1.0;" x1="611.5" x2="929.5" y1="301.7188" y2="301.7188"/><text fill="#000000" font-family="sans-serif" font-size="13" lengthAdjust="spacing" textLength="229" x="618.5" y="296.8623">&#1055;&#1088;&#1086;&#1074;&#1077;&#1088;&#1082;&#1072; &#1089;&#1091;&#1097;&#1077;&#1089;&#1090;&#1074;&#1086;&#1074;&#1072;&#1085;&#1080;&#1103; &#1072;&#1074;&#1090;&#1086;&#1084;&#1086;&#1073;&#1080;&#1083;&#1103;</text><path d="M940,281.3672 L940,307.3672 L1290,307.3672 L1290,291.3672 L1280,281.3672 L940,281.3672 " fill="#FEFFDD" style="stroke:#181818;stroke-width:0.5;"/><path d="M1280,281.3672 L1280,291.3672 L1290,291.3672 L1280,281.3672 " fill="#FEFFDD" style="stroke:#181818;stroke-width:0.5;"/><text fill="#000000" font-family="sans-serif" font-size="13" lengthAdjust="spacing" textLength="329" x="946" y="299.8623">SELECT * FROM cars WHERE id = ? AND owner_id = ?</text><polygon fill="#181818" points="622.5,331.0703,612.5,335.0703,622.5,339.0703,618.5,335.0703" style="stroke:#181818;stroke-width:1.0;"/><line style="stroke:#181818;stroke-width:1.0;stroke-dasharray:2.0,2.0;" x1="616.5" x2="934.5" y1="335.0703" y2="335.0703"/><text fill="#000000" font-family="sans-serif" font-size="13" lengthAdjust="spacing" textLength="300" x="628.5" y="330.2139">&#1040;&#1074;&#1090;&#1086;&#1084;&#1086;&#1073;&#1080;&#1083;&#1100; &#1085;&#1072;&#1081;&#1076;&#1077;&#1085; &#1080; &#1087;&#1088;&#1080;&#1085;&#1072;&#1076;&#1083;&#1077;&#1078;&#1080;&#1090; &#1087;&#1086;&#1083;&#1100;&#1079;&#1086;&#1074;&#1072;&#1090;&#1077;&#1083;&#1102;</text><polygon fill="#181818" points="923.5,364.4219,933.5,368.4219,923.5,372.4219,927.5,368.4219" style="stroke:#181818;stroke-width:1.0;"/><line style="stroke:#181818;stroke-width:1.0;" x1="611.5" x2="929.5" y1="368.4219" y2="368.4219"/><text fill="#000000" font-family="sans-serif" font-size="13" lengthAdjust="spacing" textLength="199" x="618.5" y="363.5654">&#1055;&#1088;&#1086;&#1074;&#1077;&#1088;&#1082;&#1072; &#1089;&#1091;&#1097;&#1077;&#1089;&#1090;&#1074;&#1086;&#1074;&#1072;&#1085;&#1080;&#1103; &#1091;&#1089;&#1083;&#1091;&#1075;&#1080;</text><path d="M940,348.0703 L940,374.0703 L1493,374.0703 L1493,358.0703 L1483,348.0703 L940,348.0703 " fill="#FEFFDD" style="stroke:#181818;stroke-width:0.5;"/><path d="M1483,348.0703 L1483,358.0703 L1493,358.0703 L1483,348.0703 " fill="#FEFFDD" style="stroke:#181818;stroke-width:0.5;"/><text fill="#000000" font-family="sans-serif" font-size="13" lengthAdjust="spacing" textLength="532" x="946" y="366.5654">SELECT * FROM wash_services WHERE id = ? AND car_wash_id = ? AND is_active = true</text><polygon fill="#181818" points="622.5,397.7734,612.5,401.7734,622.5,405.7734,618.5,401.7734" style="stroke:#181818;stroke-width:1.0;"/><line style="stroke:#181818;stroke-width:1.0;stroke-dasharray:2.0,2.0;" x1="616.5" x2="934.5" y1="401.7734" y2="401.7734"/><text fill="#000000" font-family="sans-serif" font-size="13" lengthAdjust="spacing" textLength="100" x="628.5" y="396.917">&#1059;&#1089;&#1083;&#1091;&#1075;&#1072; &#1076;&#1086;&#1089;&#1090;&#1091;&#1087;&#1085;&#1072;</text><polygon fill="#181818" points="923.5,431.125,933.5,435.125,923.5,439.125,927.5,435.125" style="stroke:#181818;stroke-width:1.0;"/><line style="stroke:#181818;stroke-width:1.0;" x1="611.5" x2="929.5" y1="435.125" y2="435.125"/><text fill="#000000" font-family="sans-serif" font-size="13" lengthAdjust="spacing" textLength="173" x="618.5" y="430.2686">&#1055;&#1088;&#1086;&#1074;&#1077;&#1088;&#1082;&#1072; &#1076;&#1086;&#1089;&#1090;&#1091;&#1087;&#1085;&#1086;&#1089;&#1090;&#1080; &#1073;&#1086;&#1082;&#1089;&#1072;</text><path d="M940,414.7734 L940,440.7734 L1460,440.7734 L1460,424.7734 L1450,414.7734 L940,414.7734 " fill="#FEFFDD" style="stroke:#181818;stroke-width:0.5;"/><path d="M1450,414.7734 L1450,424.7734 L1460,424.7734 L1450,414.7734 " fill="#FEFFDD" style="stroke:#181818;stroke-width:0.5;"/><text fill="#000000" font-family="sans-serif" font-size="13" lengthAdjust="spacing" textLength="499" x="946" y="433.2686">SELECT * FROM boxes WHERE id = ? AND car_wash_id = ? AND is_available = true</text><polygon fill="#181818" points="622.5,464.4766,612.5,468.4766,622.5,472.4766,618.5,468.4766" style="stroke:#181818;stroke-width:1.0;"/><line style="stroke:#181818;stroke-width:1.0;stroke-dasharray:2.0,2.0;" x1="616.5" x2="934.5" y1="468.4766" y2="468.4766"/><text fill="#000000" font-family="sans-serif" font-size="13" lengthAdjust="spacing" textLength="88" x="628.5" y="463.6201">&#1041;&#1086;&#1082;&#1089; &#1076;&#1086;&#1089;&#1090;&#1091;&#1087;&#1077;&#1085;</text><polygon fill="#181818" points="923.5,497.8281,933.5,501.8281,923.5,505.8281,927.5,501.8281" style="stroke:#181818;stroke-width:1.0;"/><line style="stroke:#181818;stroke-width:1.0;" x1="611.5" x2="929.5" y1="501.8281" y2="501.8281"/><text fill="#000000" font-family="sans-serif" font-size="13" lengthAdjust="spacing" textLength="245" x="618.5" y="496.9717">&#1055;&#1088;&#1086;&#1074;&#1077;&#1088;&#1082;&#1072; &#1089;&#1086;&#1074;&#1084;&#1077;&#1089;&#1090;&#1080;&#1084;&#1086;&#1089;&#1090;&#1080; &#1091;&#1089;&#1083;&#1091;&#1075;&#1080; &#1080; &#1073;&#1086;&#1082;&#1089;&#1072;</text><path d="M940,481.4766 L940,507.4766 L1462,507.4766 L1462,491.4766 L1452,481.4766 L940,481.4766 " fill="#FEFFDD" style="stroke:#181818;stroke-width:0.5;"/><path d="M1452,481.4766 L1452,491.4766 L1462,491.4766 L1452,481.4766 " fill="#FEFFDD" style="stroke:#181818;stroke-width:0.5;"/><text fill="#000000" font-family="sans-serif" font-size="13" lengthAdjust="spacing" textLength="501" x="946" y="499.9717">SELECT * FROM service_box_compatibility WHERE service_id = ? AND box_type = ?</text><polygon fill="#181818" points="622.5,531.1797,612.5,535.1797,622.5,539.1797,618.5,535.1797" style="stroke:#181818;stroke-width:1.0;"/><line style="stroke:#181818;stroke-width:1.0;stroke-dasharray:2.0,2.0;" x1="616.5" x2="934.5" y1="535.1797" y2="535.1797"/><text fill="#000000" font-family="sans-serif" font-size="13" lengthAdjust="spacing" textLength="183" x="628.5" y="530.3232">&#1057;&#1086;&#1074;&#1084;&#1077;&#1089;&#1090;&#1080;&#1084;&#1086;&#1089;&#1090;&#1100; &#1087;&#1086;&#1076;&#1090;&#1074;&#1077;&#1088;&#1078;&#1076;&#1077;&#1085;&#1072;</text><polygon fill="#181818" points="923.5,580.8828,933.5,584.8828,923.5,588.8828,927.5,584.8828" style="stroke:#181818;stroke-width:1.0;"/><line style="stroke:#181818;stroke-width:1.0;" x1="611.5" x2="929.5" y1="584.8828" y2="584.8828"/><text fill="#000000" font-family="sans-serif" font-size="13" lengthAdjust="spacing" textLength="278" x="618.5" y="580.0264">&#1055;&#1088;&#1086;&#1074;&#1077;&#1088;&#1082;&#1072; &#1086;&#1090;&#1089;&#1091;&#1090;&#1089;&#1090;&#1074;&#1080;&#1103; &#1082;&#1086;&#1085;&#1092;&#1083;&#1080;&#1082;&#1090;&#1091;&#1102;&#1097;&#1080;&#1093; &#1079;&#1072;&#1087;&#1080;&#1089;&#1077;&#1081;</text><path d="M940,548.1797 L940,607.1797 L1373,607.1797 L1373,558.1797 L1363,548.1797 L940,548.1797 " fill="#FEFFDD" style="stroke:#181818;stroke-width:0.5;"/><path d="M1363,548.1797 L1363,558.1797 L1373,558.1797 L1363,548.1797 " fill="#FEFFDD" style="stroke:#181818;stroke-width:0.5;"/><text fill="#000000" font-family="sans-serif" font-size="13" lengthAdjust="spacing" textLength="183" x="946" y="566.6748">SELECT * FROM appointments</text><text fill="#000000" font-family="sans-serif" font-size="13" lengthAdjust="spacing" textLength="412" x="946" y="583.0264">WHERE box_id = ? AND scheduled_date = ? AND scheduled_time = ?</text><text fill="#000000" font-family="sans-serif" font-size="13" lengthAdjust="spacing" textLength="212" x="946" y="599.3779">AND status IN ('pending', 'confirmed')</text><polygon fill="#181818" points="622.5,630.5859,612.5,634.5859,622.5,638.5859,618.5,634.5859" style="stroke:#181818;stroke-width:1.0;"/><line style="stroke:#181818;stroke-width:1.0;stroke-dasharray:2.0,2.0;" x1="616.5" x2="934.5" y1="634.5859" y2="634.5859"/><text fill="#000000" font-family="sans-serif" font-size="13" lengthAdjust="spacing" textLength="174" x="628.5" y="629.7295">&#1050;&#1086;&#1085;&#1092;&#1083;&#1080;&#1082;&#1090;&#1091;&#1102;&#1097;&#1080;&#1093; &#1079;&#1072;&#1087;&#1080;&#1089;&#1077;&#1081; &#1085;&#1077;&#1090;</text><polygon fill="#181818" points="923.5,663.9375,933.5,667.9375,923.5,671.9375,927.5,667.9375" style="stroke:#181818;stroke-width:1.0;"/><line style="stroke:#181818;stroke-width:1.0;" x1="611.5" x2="929.5" y1="667.9375" y2="667.9375"/><text fill="#000000" font-family="sans-serif" font-size="13" lengthAdjust="spacing" textLength="207" x="618.5" y="663.0811">&#1056;&#1072;&#1089;&#1095;&#1077;&#1090; &#1074;&#1088;&#1077;&#1084;&#1077;&#1085;&#1080; &#1086;&#1082;&#1086;&#1085;&#1095;&#1072;&#1085;&#1080;&#1103; &#1091;&#1089;&#1083;&#1091;&#1075;&#1080;</text><path d="M940,647.5859 L940,673.5859 L1334,673.5859 L1334,657.5859 L1324,647.5859 L940,647.5859 " fill="#FEFFDD" style="stroke:#181818;stroke-width:0.5;"/><path d="M1324,647.5859 L1324,657.5859 L1334,657.5859 L1324,647.5859 " fill="#FEFFDD" style="stroke:#181818;stroke-width:0.5;"/><text fill="#000000" font-family="sans-serif" font-size="13" lengthAdjust="spacing" textLength="373" x="946" y="666.0811">SELECT duration_minutes FROM wash_services WHERE id = ?</text><polygon fill="#181818" points="622.5,697.2891,612.5,701.2891,622.5,705.2891,618.5,701.2891" style="stroke:#181818;stroke-width:1.0;"/><line style="stroke:#181818;stroke-width:1.0;stroke-dasharray:2.0,2.0;" x1="616.5" x2="934.5" y1="701.2891" y2="701.2891"/><text fill="#000000" font-family="sans-serif" font-size="13" lengthAdjust="spacing" textLength="195" x="628.5" y="696.4326">&#1044;&#1083;&#1080;&#1090;&#1077;&#1083;&#1100;&#1085;&#1086;&#1089;&#1090;&#1100; &#1091;&#1089;&#1083;&#1091;&#1075;&#1080; = 45 &#1084;&#1080;&#1085;&#1091;&#1090;</text><polygon fill="#181818" points="923.5,730.6406,933.5,734.6406,923.5,738.6406,927.5,734.6406" style="stroke:#181818;stroke-width:1.0;"/><line style="stroke:#181818;stroke-width:1.0;" x1="611.5" x2="929.5" y1="734.6406" y2="734.6406"/><text fill="#000000" font-family="sans-serif" font-size="13" lengthAdjust="spacing" textLength="161" x="618.5" y="729.7842">&#1057;&#1086;&#1079;&#1076;&#1072;&#1085;&#1080;&#1077; &#1079;&#1072;&#1087;&#1080;&#1089;&#1080; &#1085;&#1072; &#1084;&#1086;&#1081;&#1082;&#1091;</text><path d="M940,714.2891 L940,740.2891 L1847,740.2891 L1847,724.2891 L1837,714.2891 L940,714.2891 " fill="#FEFFDD" style="stroke:#181818;stroke-width:0.5;"/><path d="M1837,714.2891 L1837,724.2891 L1847,724.2891 L1837,714.2891 " fill="#FEFFDD" style="stroke:#181818;stroke-width:0.5;"/><text fill="#000000" font-family="sans-serif" font-size="13" lengthAdjust="spacing" textLength="886" x="946" y="732.7842">INSERT INTO appointments (user_id, car_id, service_id, box_id, car_wash_id, scheduled_date, scheduled_time, scheduled_end_time, status, total_price)</text><polygon fill="#181818" points="622.5,763.9922,612.5,767.9922,622.5,771.9922,618.5,767.9922" style="stroke:#181818;stroke-width:1.0;"/><line style="stroke:#181818;stroke-width:1.0;stroke-dasharray:2.0,2.0;" x1="616.5" x2="934.5" y1="767.9922" y2="767.9922"/><text fill="#000000" font-family="sans-serif" font-size="13" lengthAdjust="spacing" textLength="124" x="628.5" y="763.1357">ID &#1089;&#1086;&#1079;&#1076;&#1072;&#1085;&#1085;&#1086;&#1081; &#1079;&#1072;&#1087;&#1080;&#1089;&#1080;</text><line style="stroke:#181818;stroke-width:1.0;" x1="611.5" x2="653.5" y1="798.3438" y2="798.3438"/><line style="stroke:#181818;stroke-width:1.0;" x1="653.5" x2="653.5" y1="798.3438" y2="811.3438"/><line style="stroke:#181818;stroke-width:1.0;" x1="612.5" x2="653.5" y1="811.3438" y2="811.3438"/><polygon fill="#181818" points="622.5,807.3438,612.5,811.3438,622.5,815.3438,618.5,811.3438" style="stroke:#181818;stroke-width:1.0;"/><text fill="#000000" font-family="sans-serif" font-size="13" lengthAdjust="spacing" textLength="151" x="618.5" y="793.4873">&#1056;&#1072;&#1089;&#1095;&#1077;&#1090; &#1086;&#1073;&#1097;&#1077;&#1081; &#1089;&#1090;&#1086;&#1080;&#1084;&#1086;&#1089;&#1090;&#1080;</text><path d="M781,784.4922 L781,810.4922 L1077,810.4922 L1077,794.4922 L1067,784.4922 L781,784.4922 " fill="#FEFFDD" style="stroke:#181818;stroke-width:0.5;"/><path d="M1067,784.4922 L1067,794.4922 L1077,794.4922 L1067,784.4922 " fill="#FEFFDD" style="stroke:#181818;stroke-width:0.5;"/><text fill="#000000" font-family="sans-serif" font-size="13" lengthAdjust="spacing" textLength="275" x="787" y="802.9873">&#1055;&#1086;&#1083;&#1091;&#1095;&#1077;&#1085;&#1080;&#1077; &#1094;&#1077;&#1085;&#1099; &#1091;&#1089;&#1083;&#1091;&#1075;&#1080; &#1080; &#1087;&#1088;&#1080;&#1084;&#1077;&#1085;&#1077;&#1085;&#1080;&#1077; &#1089;&#1082;&#1080;&#1076;&#1086;&#1082;</text><polygon fill="#181818" points="923.5,840.6953,933.5,844.6953,923.5,848.6953,927.5,844.6953" style="stroke:#181818;stroke-width:1.0;"/><line style="stroke:#181818;stroke-width:1.0;" x1="611.5" x2="929.5" y1="844.6953" y2="844.6953"/><text fill="#000000" font-family="sans-serif" font-size="13" lengthAdjust="spacing" textLength="182" x="618.5" y="839.8389">&#1054;&#1073;&#1085;&#1086;&#1074;&#1083;&#1077;&#1085;&#1080;&#1077; &#1086;&#1073;&#1097;&#1077;&#1081; &#1089;&#1090;&#1086;&#1080;&#1084;&#1086;&#1089;&#1090;&#1080;</text><path d="M940,824.3438 L940,850.3438 L1301,850.3438 L1301,834.3438 L1291,824.3438 L940,824.3438 " fill="#FEFFDD" style="stroke:#181818;stroke-width:0.5;"/><path d="M1291,824.3438 L1291,834.3438 L1301,834.3438 L1291,824.3438 " fill="#FEFFDD" style="stroke:#181818;stroke-width:0.5;"/><text fill="#000000" font-family="sans-serif" font-size="13" lengthAdjust="spacing" textLength="340" x="946" y="842.8389">UPDATE appointments SET total_price = ? WHERE id = ?</text><polygon fill="#181818" points="622.5,874.0469,612.5,878.0469,622.5,882.0469,618.5,878.0469" style="stroke:#181818;stroke-width:1.0;"/><line style="stroke:#181818;stroke-width:1.0;stroke-dasharray:2.0,2.0;" x1="616.5" x2="934.5" y1="878.0469" y2="878.0469"/><text fill="#000000" font-family="sans-serif" font-size="13" lengthAdjust="spacing" textLength="130" x="628.5" y="873.1904">&#1057;&#1090;&#1086;&#1080;&#1084;&#1086;&#1089;&#1090;&#1100; &#1086;&#1073;&#1085;&#1086;&#1074;&#1083;&#1077;&#1085;&#1072;</text><polygon fill="#181818" points="477.5,907.3984,467.5,911.3984,477.5,915.3984,473.5,911.3984" style="stroke:#181818;stroke-width:1.0;"/><line style="stroke:#181818;stroke-width:1.0;stroke-dasharray:2.0,2.0;" x1="471.5" x2="610.5" y1="911.3984" y2="911.3984"/><text fill="#000000" font-family="sans-serif" font-size="13" lengthAdjust="spacing" textLength="70" x="483.5" y="906.542">201 Created</text><path d="M5,891.0469 L5,917.0469 L462,917.0469 L462,901.0469 L452,891.0469 L5,891.0469 " fill="#FEFFDD" style="stroke:#181818;stroke-width:0.5;"/><path d="M452,891.0469 L452,901.0469 L462,901.0469 L452,891.0469 " fill="#FEFFDD" style="stroke:#181818;stroke-width:0.5;"/><text fill="#000000" font-family="sans-serif" font-size="13" lengthAdjust="spacing" textLength="436" x="11" y="909.542">{appointment: {id: 111, status: "pending", ...}, message: "&#1047;&#1072;&#1087;&#1080;&#1089;&#1100; &#1089;&#1086;&#1079;&#1076;&#1072;&#1085;&#1072;"}</text><rect fill="#EEEEEE" height="3" style="stroke:#EEEEEE;stroke-width:1.0;" width="1857.5" x="0" y="943.5742"/><line style="stroke:#000000;stroke-width:1.0;" x1="0" x2="1857.5" y1="943.5742" y2="943.5742"/><line style="stroke:#000000;stroke-width:1.0;" x1="0" x2="1857.5" y1="946.5742" y2="946.5742"/><rect fill="#EEEEEE" height="24.3516" style="stroke:#000000;stroke-width:2.0;" width="331" x="763.25" y="932.3984"/><text fill="#000000" font-family="sans-serif" font-size="13" font-weight="bold" lengthAdjust="spacing" textLength="313" x="769.25" y="949.8936">&#1040;&#1083;&#1100;&#1090;&#1077;&#1088;&#1085;&#1072;&#1090;&#1080;&#1074;&#1085;&#1099;&#1081; &#1087;&#1086;&#1090;&#1086;&#1082;: &#1040;&#1074;&#1090;&#1086;&#1084;&#1086;&#1073;&#1080;&#1083;&#1100; &#1085;&#1077; &#1085;&#1072;&#1081;&#1076;&#1077;&#1085;</text><polygon fill="#181818" points="599.5,988.1016,609.5,992.1016,599.5,996.1016,603.5,992.1016" style="stroke:#181818;stroke-width:1.0;"/><line style="stroke:#181818;stroke-width:1.0;" x1="466.5" x2="605.5" y1="992.1016" y2="992.1016"/><text fill="#000000" font-family="sans-serif" font-size="13" lengthAdjust="spacing" textLength="121" x="473.5" y="987.2451">POST /appointments</text><path d="M616,971.75 L616,997.75 L729,997.75 L729,981.75 L719,971.75 L616,971.75 " fill="#FEFFDD" style="stroke:#181818;stroke-width:0.5;"/><path d="M719,971.75 L719,981.75 L729,981.75 L719,971.75 " fill="#FEFFDD" style="stroke:#181818;stroke-width:0.5;"/><text fill="#000000" font-family="sans-serif" font-size="13" lengthAdjust="spacing" textLength="92" x="622" y="990.2451">{car_id: 999, ...}</text><line style="stroke:#181818;stroke-width:1.0;" x1="611.5" x2="653.5" y1="1025.4531" y2="1025.4531"/><line style="stroke:#181818;stroke-width:1.0;" x1="653.5" x2="653.5" y1="1025.4531" y2="1038.4531"/><line style="stroke:#181818;stroke-width:1.0;" x1="612.5" x2="653.5" y1="1038.4531" y2="1038.4531"/><polygon fill="#181818" points="622.5,1034.4531,612.5,1038.4531,622.5,1042.4531,618.5,1038.4531" style="stroke:#181818;stroke-width:1.0;"/><text fill="#000000" font-family="sans-serif" font-size="13" lengthAdjust="spacing" textLength="169" x="618.5" y="1020.5967">&#1042;&#1072;&#1083;&#1080;&#1076;&#1072;&#1094;&#1080;&#1103; &#1090;&#1086;&#1082;&#1077;&#1085;&#1072; &#1080; &#1076;&#1072;&#1085;&#1085;&#1099;&#1093;</text><polygon fill="#181818" points="923.5,1064.8047,933.5,1068.8047,923.5,1072.8047,927.5,1068.8047" style="stroke:#181818;stroke-width:1.0;"/><line style="stroke:#181818;stroke-width:1.0;" x1="611.5" x2="929.5" y1="1068.8047" y2="1068.8047"/><text fill="#000000" font-family="sans-serif" font-size="13" lengthAdjust="spacing" textLength="229" x="618.5" y="1063.9482">&#1055;&#1088;&#1086;&#1074;&#1077;&#1088;&#1082;&#1072; &#1089;&#1091;&#1097;&#1077;&#1089;&#1090;&#1074;&#1086;&#1074;&#1072;&#1085;&#1080;&#1103; &#1072;&#1074;&#1090;&#1086;&#1084;&#1086;&#1073;&#1080;&#1083;&#1103;</text><polygon fill="#181818" points="622.5,1095.1563,612.5,1099.1563,622.5,1103.1563,618.5,1099.1563" style="stroke:#181818;stroke-width:1.0;"/><line style="stroke:#181818;stroke-width:1.0;stroke-dasharray:2.0,2.0;" x1="616.5" x2="934.5" y1="1099.1563" y2="1099.1563"/><text fill="#000000" font-family="sans-serif" font-size="13" lengthAdjust="spacing" textLength="137" x="628.5" y="1094.2998">&#1040;&#1074;&#1090;&#1086;&#1084;&#1086;&#1073;&#1080;&#1083;&#1100; &#1085;&#1077; &#1085;&#1072;&#1081;&#1076;&#1077;&#1085;</text><polygon fill="#181818" points="477.5,1128.5078,467.5,1132.5078,477.5,1136.5078,473.5,1132.5078" style="stroke:#181818;stroke-width:1.0;"/><line style="stroke:#181818;stroke-width:1.0;stroke-dasharray:2.0,2.0;" x1="471.5" x2="610.5" y1="1132.5078" y2="1132.5078"/><text fill="#000000" font-family="sans-serif" font-size="13" lengthAdjust="spacing" textLength="85" x="483.5" y="1127.6514">404 Not Found</text><path d="M293,1112.1563 L293,1138.1563 L461,1138.1563 L461,1122.1563 L451,1112.1563 L293,1112.1563 " fill="#FEFFDD" style="stroke:#181818;stroke-width:0.5;"/><path d="M451,1112.1563 L451,1122.1563 L461,1122.1563 L451,1112.1563 " fill="#FEFFDD" style="stroke:#181818;stroke-width:0.5;"/><text fill="#000000" font-family="sans-serif" font-size="13" lengthAdjust="spacing" textLength="147" x="299" y="1130.6514">"&#1040;&#1074;&#1090;&#1086;&#1084;&#1086;&#1073;&#1080;&#1083;&#1100; &#1085;&#1077; &#1085;&#1072;&#1081;&#1076;&#1077;&#1085;"</text><rect fill="#EEEEEE" height="3" style="stroke:#EEEEEE;stroke-width:1.0;" width="1857.5" x="0" y="1164.6836"/><line style="stroke:#000000;stroke-width:1.0;" x1="0" x2="1857.5" y1="1164.6836" y2="1164.6836"/><line style="stroke:#000000;stroke-width:1.0;" x1="0" x2="1857.5" y1="1167.6836" y2="1167.6836"/><rect fill="#EEEEEE" height="24.3516" style="stroke:#000000;stroke-width:2.0;" width="302" x="777.75" y="1153.5078"/><text fill="#000000" font-family="sans-serif" font-size="13" font-weight="bold" lengthAdjust="spacing" textLength="284" x="783.75" y="1171.0029">&#1040;&#1083;&#1100;&#1090;&#1077;&#1088;&#1085;&#1072;&#1090;&#1080;&#1074;&#1085;&#1099;&#1081; &#1087;&#1086;&#1090;&#1086;&#1082;: &#1059;&#1089;&#1083;&#1091;&#1075;&#1072; &#1085;&#1077;&#1076;&#1086;&#1089;&#1090;&#1091;&#1087;&#1085;&#1072;</text><polygon fill="#181818" points="599.5,1209.2109,609.5,1213.2109,599.5,1217.2109,603.5,1213.2109" style="stroke:#181818;stroke-width:1.0;"/><line style="stroke:#181818;stroke-width:1.0;" x1="466.5" x2="605.5" y1="1213.2109" y2="1213.2109"/><text fill="#000000" font-family="sans-serif" font-size="13" lengthAdjust="spacing" textLength="121" x="473.5" y="1208.3545">POST /appointments</text><path d="M616,1192.8594 L616,1218.8594 L751,1218.8594 L751,1202.8594 L741,1192.8594 L616,1192.8594 " fill="#FEFFDD" style="stroke:#181818;stroke-width:0.5;"/><path d="M741,1192.8594 L741,1202.8594 L751,1202.8594 L741,1192.8594 " fill="#FEFFDD" style="stroke:#181818;stroke-width:0.5;"/><text fill="#000000" font-family="sans-serif" font-size="13" lengthAdjust="spacing" textLength="114" x="622" y="1211.3545">{service_id: 999, ...}</text><polygon fill="#181818" points="923.5,1242.5625,933.5,1246.5625,923.5,1250.5625,927.5,1246.5625" style="stroke:#181818;stroke-width:1.0;"/><line style="stroke:#181818;stroke-width:1.0;" x1="611.5" x2="929.5" y1="1246.5625" y2="1246.5625"/><text fill="#000000" font-family="sans-serif" font-size="13" lengthAdjust="spacing" textLength="199" x="618.5" y="1241.7061">&#1055;&#1088;&#1086;&#1074;&#1077;&#1088;&#1082;&#1072; &#1089;&#1091;&#1097;&#1077;&#1089;&#1090;&#1074;&#1086;&#1074;&#1072;&#1085;&#1080;&#1103; &#1091;&#1089;&#1083;&#1091;&#1075;&#1080;</text><polygon fill="#181818" points="622.5,1272.9141,612.5,1276.9141,622.5,1280.9141,618.5,1276.9141" style="stroke:#181818;stroke-width:1.0;"/><line style="stroke:#181818;stroke-width:1.0;stroke-dasharray:2.0,2.0;" x1="616.5" x2="934.5" y1="1276.9141" y2="1276.9141"/><text fill="#000000" font-family="sans-serif" font-size="13" lengthAdjust="spacing" textLength="202" x="628.5" y="1272.0576">&#1059;&#1089;&#1083;&#1091;&#1075;&#1072; &#1085;&#1077; &#1085;&#1072;&#1081;&#1076;&#1077;&#1085;&#1072; &#1080;&#1083;&#1080; &#1085;&#1077;&#1072;&#1082;&#1090;&#1080;&#1074;&#1085;&#1072;</text><polygon fill="#181818" points="477.5,1306.2656,467.5,1310.2656,477.5,1314.2656,473.5,1310.2656" style="stroke:#181818;stroke-width:1.0;"/><line style="stroke:#181818;stroke-width:1.0;stroke-dasharray:2.0,2.0;" x1="471.5" x2="610.5" y1="1310.2656" y2="1310.2656"/><text fill="#000000" font-family="sans-serif" font-size="13" lengthAdjust="spacing" textLength="100" x="483.5" y="1305.4092">400 Bad Request</text><path d="M316,1289.9141 L316,1315.9141 L461,1315.9141 L461,1299.9141 L451,1289.9141 L316,1289.9141 " fill="#FEFFDD" style="stroke:#181818;stroke-width:0.5;"/><path d="M451,1289.9141 L451,1299.9141 L461,1299.9141 L451,1289.9141 " fill="#FEFFDD" style="stroke:#181818;stroke-width:0.5;"/><text fill="#000000" font-family="sans-serif" font-size="13" lengthAdjust="spacing" textLength="124" x="322" y="1308.4092">"&#1059;&#1089;&#1083;&#1091;&#1075;&#1072; &#1085;&#1077;&#1076;&#1086;&#1089;&#1090;&#1091;&#1087;&#1085;&#1072;"</text><rect fill="#EEEEEE" height="3" style="stroke:#EEEEEE;stroke-width:1.0;" width="1857.5" x="0" y="1342.4414"/><line style="stroke:#000000;stroke-width:1.0;" x1="0" x2="1857.5" y1="1342.4414" y2="1342.4414"/><line style="stroke:#000000;stroke-width:1.0;" x1="0" x2="1857.5" y1="1345.4414" y2="1345.4414"/><rect fill="#EEEEEE" height="24.3516" style="stroke:#000000;stroke-width:2.0;" width="251" x="803.25" y="1331.2656"/><text fill="#000000" font-family="sans-serif" font-size="13" font-weight="bold" lengthAdjust="spacing" textLength="233" x="809.25" y="1348.7607">&#1040;&#1083;&#1100;&#1090;&#1077;&#1088;&#1085;&#1072;&#1090;&#1080;&#1074;&#1085;&#1099;&#1081; &#1087;&#1086;&#1090;&#1086;&#1082;: &#1041;&#1086;&#1082;&#1089; &#1079;&#1072;&#1085;&#1103;&#1090;</text><polygon fill="#181818" points="599.5,1386.9688,609.5,1390.9688,599.5,1394.9688,603.5,1390.9688" style="stroke:#181818;stroke-width:1.0;"/><line style="stroke:#181818;stroke-width:1.0;" x1="466.5" x2="605.5" y1="1390.9688" y2="1390.9688"/><text fill="#000000" font-family="sans-serif" font-size="13" lengthAdjust="spacing" textLength="121" x="473.5" y="1386.1123">POST /appointments</text><path d="M616,1370.6172 L616,1396.6172 L1042,1396.6172 L1042,1380.6172 L1032,1370.6172 L616,1370.6172 " fill="#FEFFDD" style="stroke:#181818;stroke-width:0.5;"/><path d="M1032,1370.6172 L1032,1380.6172 L1042,1380.6172 L1032,1370.6172 " fill="#FEFFDD" style="stroke:#181818;stroke-width:0.5;"/><text fill="#000000" font-family="sans-serif" font-size="13" lengthAdjust="spacing" textLength="405" x="622" y="1389.1123">{box_id: 789, scheduled_date: "2024-01-15", scheduled_time: "14:00"}</text><polygon fill="#181818" points="923.5,1420.3203,933.5,1424.3203,923.5,1428.3203,927.5,1424.3203" style="stroke:#181818;stroke-width:1.0;"/><line style="stroke:#181818;stroke-width:1.0;" x1="611.5" x2="929.5" y1="1424.3203" y2="1424.3203"/><text fill="#000000" font-family="sans-serif" font-size="13" lengthAdjust="spacing" textLength="173" x="618.5" y="1419.4639">&#1055;&#1088;&#1086;&#1074;&#1077;&#1088;&#1082;&#1072; &#1076;&#1086;&#1089;&#1090;&#1091;&#1087;&#1085;&#1086;&#1089;&#1090;&#1080; &#1073;&#1086;&#1082;&#1089;&#1072;</text><polygon fill="#181818" points="622.5,1450.6719,612.5,1454.6719,622.5,1458.6719,618.5,1454.6719" style="stroke:#181818;stroke-width:1.0;"/><line style="stroke:#181818;stroke-width:1.0;stroke-dasharray:2.0,2.0;" x1="616.5" x2="934.5" y1="1454.6719" y2="1454.6719"/><text fill="#000000" font-family="sans-serif" font-size="13" lengthAdjust="spacing" textLength="88" x="628.5" y="1449.8154">&#1041;&#1086;&#1082;&#1089; &#1076;&#1086;&#1089;&#1090;&#1091;&#1087;&#1077;&#1085;</text><polygon fill="#181818" points="923.5,1481.0234,933.5,1485.0234,923.5,1489.0234,927.5,1485.0234" style="stroke:#181818;stroke-width:1.0;"/><line style="stroke:#181818;stroke-width:1.0;" x1="611.5" x2="929.5" y1="1485.0234" y2="1485.0234"/><text fill="#000000" font-family="sans-serif" font-size="13" lengthAdjust="spacing" textLength="210" x="618.5" y="1480.167">&#1055;&#1088;&#1086;&#1074;&#1077;&#1088;&#1082;&#1072; &#1082;&#1086;&#1085;&#1092;&#1083;&#1080;&#1082;&#1090;&#1091;&#1102;&#1097;&#1080;&#1093; &#1079;&#1072;&#1087;&#1080;&#1089;&#1077;&#1081;</text><polygon fill="#181818" points="622.5,1511.375,612.5,1515.375,622.5,1519.375,618.5,1515.375" style="stroke:#181818;stroke-width:1.0;"/><line style="stroke:#181818;stroke-width:1.0;stroke-dasharray:2.0,2.0;" x1="616.5" x2="934.5" y1="1515.375" y2="1515.375"/><text fill="#000000" font-family="sans-serif" font-size="13" lengthAdjust="spacing" textLength="198" x="628.5" y="1510.5186">&#1053;&#1072;&#1081;&#1076;&#1077;&#1085;&#1072; &#1082;&#1086;&#1085;&#1092;&#1083;&#1080;&#1082;&#1090;&#1091;&#1102;&#1097;&#1072;&#1103; &#1079;&#1072;&#1087;&#1080;&#1089;&#1100;</text><polygon fill="#181818" points="477.5,1544.7266,467.5,1548.7266,477.5,1552.7266,473.5,1548.7266" style="stroke:#181818;stroke-width:1.0;"/><line style="stroke:#181818;stroke-width:1.0;stroke-dasharray:2.0,2.0;" x1="471.5" x2="610.5" y1="1548.7266" y2="1548.7266"/><text fill="#000000" font-family="sans-serif" font-size="13" lengthAdjust="spacing" textLength="68" x="483.5" y="1543.8701">409 Conflict</text><path d="M321,1528.375 L321,1554.375 L461,1554.375 L461,1538.375 L451,1528.375 L321,1528.375 " fill="#FEFFDD" style="stroke:#181818;stroke-width:0.5;"/><path d="M451,1528.375 L451,1538.375 L461,1538.375 L451,1528.375 " fill="#FEFFDD" style="stroke:#181818;stroke-width:0.5;"/><text fill="#000000" font-family="sans-serif" font-size="13" lengthAdjust="spacing" textLength="119" x="327" y="1546.8701">"&#1042;&#1088;&#1077;&#1084;&#1103; &#1091;&#1078;&#1077; &#1079;&#1072;&#1085;&#1103;&#1090;&#1086;"</text><rect fill="#EEEEEE" height="3" style="stroke:#EEEEEE;stroke-width:1.0;" width="1857.5" x="0" y="1580.9023"/><line style="stroke:#000000;stroke-width:1.0;" x1="0" x2="1857.5" y1="1580.9023" y2="1580.9023"/><line style="stroke:#000000;stroke-width:1.0;" x1="0" x2="1857.5" y1="1583.9023" y2="1583.9023"/><rect fill="#EEEEEE" height="24.3516" style="stroke:#000000;stroke-width:2.0;" width="395" x="731.25" y="1569.7266"/><text fill="#000000" font-family="sans-serif" font-size="13" font-weight="bold" lengthAdjust="spacing" textLength="377" x="737.25" y="1587.2217">&#1040;&#1083;&#1100;&#1090;&#1077;&#1088;&#1085;&#1072;&#1090;&#1080;&#1074;&#1085;&#1099;&#1081; &#1087;&#1086;&#1090;&#1086;&#1082;: &#1053;&#1077;&#1089;&#1086;&#1074;&#1084;&#1077;&#1089;&#1090;&#1080;&#1084;&#1086;&#1089;&#1090;&#1100; &#1091;&#1089;&#1083;&#1091;&#1075;&#1080; &#1080; &#1073;&#1086;&#1082;&#1089;&#1072;</text><polygon fill="#181818" points="599.5,1625.4297,609.5,1629.4297,599.5,1633.4297,603.5,1629.4297" style="stroke:#181818;stroke-width:1.0;"/><line style="stroke:#181818;stroke-width:1.0;" x1="466.5" x2="605.5" y1="1629.4297" y2="1629.4297"/><text fill="#000000" font-family="sans-serif" font-size="13" lengthAdjust="spacing" textLength="121" x="473.5" y="1624.5732">POST /appointments</text><path d="M616,1609.0781 L616,1635.0781 L806,1635.0781 L806,1619.0781 L796,1609.0781 L616,1609.0781 " fill="#FEFFDD" style="stroke:#181818;stroke-width:0.5;"/><path d="M796,1609.0781 L796,1619.0781 L806,1619.0781 L796,1609.0781 " fill="#FEFFDD" style="stroke:#181818;stroke-width:0.5;"/><text fill="#000000" font-family="sans-serif" font-size="13" lengthAdjust="spacing" textLength="169" x="622" y="1627.5732">{service_id: 456, box_id: 789}</text><polygon fill="#181818" points="923.5,1658.7813,933.5,1662.7813,923.5,1666.7813,927.5,1662.7813" style="stroke:#181818;stroke-width:1.0;"/><line style="stroke:#181818;stroke-width:1.0;" x1="611.5" x2="929.5" y1="1662.7813" y2="1662.7813"/><text fill="#000000" font-family="sans-serif" font-size="13" lengthAdjust="spacing" textLength="152" x="618.5" y="1657.9248">&#1055;&#1088;&#1086;&#1074;&#1077;&#1088;&#1082;&#1072; &#1089;&#1086;&#1074;&#1084;&#1077;&#1089;&#1090;&#1080;&#1084;&#1086;&#1089;&#1090;&#1080;</text><polygon fill="#181818" points="622.5,1689.1328,612.5,1693.1328,622.5,1697.1328,618.5,1693.1328" style="stroke:#181818;stroke-width:1.0;"/><line style="stroke:#181818;stroke-width:1.0;stroke-dasharray:2.0,2.0;" x1="616.5" x2="934.5" y1="1693.1328" y2="1693.1328"/><text fill="#000000" font-family="sans-serif" font-size="13" lengthAdjust="spacing" textLength="175" x="628.5" y="1688.2764">&#1059;&#1089;&#1083;&#1091;&#1075;&#1072; &#1080; &#1073;&#1086;&#1082;&#1089; &#1085;&#1077;&#1089;&#1086;&#1074;&#1084;&#1077;&#1089;&#1090;&#1080;&#1084;&#1099;</text><polygon fill="#181818" points="477.5,1722.4844,467.5,1726.4844,477.5,1730.4844,473.5,1726.4844" style="stroke:#181818;stroke-width:1.0;"/><line style="stroke:#181818;stroke-width:1.0;stroke-dasharray:2.0,2.0;" x1="471.5" x2="610.5" y1="1726.4844" y2="1726.4844"/><text fill="#000000" font-family="sans-serif" font-size="13" lengthAdjust="spacing" textLength="100" x="483.5" y="1721.6279">400 Bad Request</text><path d="M149,1706.1328 L149,1732.1328 L461,1732.1328 L461,1716.1328 L451,1706.1328 L149,1706.1328 " fill="#FEFFDD" style="stroke:#181818;stroke-width:0.5;"/><path d="M451,1706.1328 L451,1716.1328 L461,1716.1328 L451,1706.1328 " fill="#FEFFDD" style="stroke:#181818;stroke-width:0.5;"/><text fill="#000000" font-family="sans-serif" font-size="13" lengthAdjust="spacing" textLength="291" x="155" y="1724.6279">"&#1044;&#1072;&#1085;&#1085;&#1072;&#1103; &#1091;&#1089;&#1083;&#1091;&#1075;&#1072; &#1085;&#1077;&#1076;&#1086;&#1089;&#1090;&#1091;&#1087;&#1085;&#1072; &#1074; &#1074;&#1099;&#1073;&#1088;&#1072;&#1085;&#1085;&#1086;&#1084; &#1073;&#1086;&#1082;&#1089;&#1077;"</text><rect fill="#EEEEEE" height="3" style="stroke:#EEEEEE;stroke-width:1.0;" width="1857.5" x="0" y="1758.6602"/><line style="stroke:#000000;stroke-width:1.0;" x1="0" x2="1857.5" y1="1758.6602" y2="1758.6602"/><line style="stroke:#000000;stroke-width:1.0;" x1="0" x2="1857.5" y1="1761.6602" y2="1761.6602"/><rect fill="#EEEEEE" height="24.3516" style="stroke:#000000;stroke-width:2.0;" width="199" x="829.25" y="1747.4844"/><text fill="#000000" font-family="sans-serif" font-size="13" font-weight="bold" lengthAdjust="spacing" textLength="181" x="835.25" y="1764.9795">&#1044;&#1086;&#1087;&#1086;&#1083;&#1085;&#1080;&#1090;&#1077;&#1083;&#1100;&#1085;&#1099;&#1077; &#1087;&#1088;&#1086;&#1074;&#1077;&#1088;&#1082;&#1080;</text><path d="M177,1788.8359 L456,1788.8359 L456,1797.1875 L446,1807.1875 L177,1807.1875 L177,1788.8359 " fill="#EEEEEE" style="stroke:#000000;stroke-width:1.5;"/><rect fill="none" height="153.7578" style="stroke:#000000;stroke-width:1.5;" width="1142.5" x="177" y="1788.8359"/><text fill="#000000" font-family="sans-serif" font-size="13" font-weight="bold" lengthAdjust="spacing" textLength="234" x="192" y="1803.3311">&#1055;&#1088;&#1086;&#1074;&#1077;&#1088;&#1082;&#1072; &#1088;&#1072;&#1073;&#1086;&#1095;&#1077;&#1075;&#1086; &#1074;&#1088;&#1077;&#1084;&#1077;&#1085;&#1080; &#1084;&#1086;&#1081;&#1082;&#1080;</text><polygon fill="#181818" points="923.5,1828.5391,933.5,1832.5391,923.5,1836.5391,927.5,1832.5391" style="stroke:#181818;stroke-width:1.0;"/><line style="stroke:#181818;stroke-width:1.0;" x1="611.5" x2="929.5" y1="1832.5391" y2="1832.5391"/><text fill="#000000" font-family="sans-serif" font-size="13" lengthAdjust="spacing" textLength="203" x="618.5" y="1827.6826">&#1055;&#1086;&#1083;&#1091;&#1095;&#1077;&#1085;&#1080;&#1077; &#1075;&#1088;&#1072;&#1092;&#1080;&#1082;&#1072; &#1088;&#1072;&#1073;&#1086;&#1090;&#1099; &#1084;&#1086;&#1081;&#1082;&#1080;</text><path d="M940,1812.1875 L940,1838.1875 L1304,1838.1875 L1304,1822.1875 L1294,1812.1875 L940,1812.1875 " fill="#FEFFDD" style="stroke:#181818;stroke-width:0.5;"/><path d="M1294,1812.1875 L1294,1822.1875 L1304,1822.1875 L1294,1812.1875 " fill="#FEFFDD" style="stroke:#181818;stroke-width:0.5;"/><text fill="#000000" font-family="sans-serif" font-size="13" lengthAdjust="spacing" textLength="343" x="946" y="1830.6826">SELECT opening_hours FROM car_washes WHERE id = ?</text><polygon fill="#181818" points="622.5,1861.8906,612.5,1865.8906,622.5,1869.8906,618.5,1865.8906" style="stroke:#181818;stroke-width:1.0;"/><line style="stroke:#181818;stroke-width:1.0;stroke-dasharray:2.0,2.0;" x1="616.5" x2="934.5" y1="1865.8906" y2="1865.8906"/><text fill="#000000" font-family="sans-serif" font-size="13" lengthAdjust="spacing" textLength="142" x="628.5" y="1861.0342">&#1043;&#1088;&#1072;&#1092;&#1080;&#1082; &#1088;&#1072;&#1073;&#1086;&#1090;&#1099; &#1087;&#1086;&#1083;&#1091;&#1095;&#1077;&#1085;</text><path d="M187,1880.8906 L248,1880.8906 L248,1889.2422 L238,1899.2422 L187,1899.2422 L187,1880.8906 " fill="#EEEEEE" style="stroke:#000000;stroke-width:1.5;"/><rect fill="none" height="54.7031" style="stroke:#000000;stroke-width:1.5;" width="478.5" x="187" y="1880.8906"/><text fill="#000000" font-family="sans-serif" font-size="13" font-weight="bold" lengthAdjust="spacing" textLength="16" x="202" y="1895.3857">alt</text><text fill="#000000" font-family="sans-serif" font-size="11" font-weight="bold" lengthAdjust="spacing" textLength="171" x="263" y="1894.3096">[&#1042;&#1088;&#1077;&#1084;&#1103; &#1074;&#1085;&#1077; &#1088;&#1072;&#1073;&#1086;&#1095;&#1077;&#1075;&#1086; &#1075;&#1088;&#1072;&#1092;&#1080;&#1082;&#1072;]</text><polygon fill="#181818" points="477.5,1920.5938,467.5,1924.5938,477.5,1928.5938,473.5,1924.5938" style="stroke:#181818;stroke-width:1.0;"/><line style="stroke:#181818;stroke-width:1.0;stroke-dasharray:2.0,2.0;" x1="471.5" x2="610.5" y1="1924.5938" y2="1924.5938"/><text fill="#000000" font-family="sans-serif" font-size="13" lengthAdjust="spacing" textLength="100" x="483.5" y="1919.7373">400 Bad Request</text><path d="M197,1904.2422 L197,1930.2422 L461,1930.2422 L461,1914.2422 L451,1904.2422 L197,1904.2422 " fill="#FEFFDD" style="stroke:#181818;stroke-width:0.5;"/><path d="M451,1904.2422 L451,1914.2422 L461,1914.2422 L451,1904.2422 " fill="#FEFFDD" style="stroke:#181818;stroke-width:0.5;"/><text fill="#000000" font-family="sans-serif" font-size="13" lengthAdjust="spacing" textLength="243" x="203" y="1922.7373">"&#1052;&#1086;&#1081;&#1082;&#1072; &#1085;&#1077; &#1088;&#1072;&#1073;&#1086;&#1090;&#1072;&#1077;&#1090; &#1074; &#1074;&#1099;&#1073;&#1088;&#1072;&#1085;&#1085;&#1086;&#1077; &#1074;&#1088;&#1077;&#1084;&#1103;"</text><!--SRC=[hLZTJXjN4BxtKunyGrgPrAPEMwoI2c97fMf91Avo4majzWPMDRlkUasQHaW1cgOLKKXIf5PHqnRb1OnXW_apht3sZVhDsRMzPssCYK42-vmzCsT-lfdv5gtWM3Q9D-9OD8GhJhtrM5cp7QDWb3NJeRZO4QxtHDJvBqtUdOwJLg4vtLxHxLXHSxG5hQBZr2jH4mUYHc8VNqwXPjDxAezcfsAnYGaIxxmrSGObl-5fKxY4PHCI_d7SJ2oE4mqyQD34H2mMjeb6RmQNPkZkdRayVQALovPXEikwwLHYfkNeP1kBIqw69glEacKRFskEOPaPcj8rMxVfIyVwGJTltZSV5pHxtYXcA3NsQO8gq6aKTBcHll5PWXQid-JYyo_64yH77sgL9VyyJXUMz6Arf1VduRcUeVXOSYmzcaoDfcx4mqyTOvcVfjAPP3A-6elvbeTz4A_XB7i7_xrVuVGMVNClJzuwWdB4BekQufJu2-6fGyBrdid77B4gh8TfXCM1AZhOZQBkFONGlfyj9NNgvVy204qV0hYYHjuleecl9z34jzQbgBVkRIPOvnCOSU8RcK2QlGtlTqYkuMXTQf49n_NJsR2TsQbU5vqlZIzrUVi9VdVXrx6tfLWzb_isTojF7zFjsJlVSIehTE_ht6oE4B49-eecPx9aFJJz468Z5ijEqMWuOY-xRdXE75vn27_X7m9FuWocDkJkFgT7l8TrwzY63CuZQz9ew76nVZ6CntYm1XqROayq-dWg0HlWkeVB8KotzupAl5PmZ1KTEuvTrRj3yQvzjIpn9fk7vLaKRJrzYWZ8xnowNKOi5DVwU8Dwl8mNAvfHqXPAvploohzJjGcv720nSdaIfAR1g0WS2IU61dMirNcuuHIivJBQrO9HCfn7WRETpjHsa8ywZyfwRxJkzBQFCSjWt9TuOc_U- -WT975Do3CWrmCuoi8xmfbJj01k9aSSGUy54DlW3j9fuQuuxEDyk7dJVTFts6-zRM_LPjjZcxiiRzytvRwZETKAJS_GjP6oRXODSt4aGIC5otnWsCjwSUIZxf2z6T0JhdeNWp4Qh_zGs6lSaBdYbSP7iXcpzcS3rs-nQikPDRzic5K7gB-WdBlzsMPFWbRpl5Lf0802q0aCEeATQ5gSsIwdTlhDPOODoOPuY8XjA6vCpypbPlFuoDzH4tmj65J-GENF3hXR4rSPjj596vsjuJLItTgJ24YGOpbQQRviuuBkd4zdLUR1PEHGyR7dy5GoZMd0BHfoiYoQuMOG6Pno2co4PZP6BnEQpUwcuGyI7p_jqsj04OzieAahKV-WpvpAUZrk2mnks_TtivFvd9gekLm-73rPS_qHjwFUmSsc6J4hr6OW6IPr6HfBfkYMhIF5HT-ualu0jZqEMOMLP5-fL2l3O5P1WODqNRz-VJL1otgbeYqovn9_jZB9k0zdkiPCZ9deIwuEhX84_5IEvWQCHKuO26VSypZSvyz_LoK1Gr3LDXST7n_tNHcGkON9dWHFcBfTDQaQa1QfOUcJz7GoJJEMGxUjggcaFJwOwlWbqwXm5wwj27yPAeFX5uYUMHoAvVMbOT6uI2Ym5xwNDHvfVapwrc0wcQGfhKYp-ezLlUAe2RaeTfVDHPj-SSCzzROGx66Yhxoj3Vzsze7izSeuvk3KAdhbMnK6lVNKkC8FElsnBoZ6wHQeKyaeH13nsgSv4gcWacuebQ9vMJYyvH8ubxUUpwklh6IZx_ohGxm7zA_MZla-c-nIusr-Q95k1qocfhQFSxeTlwxNaOfTEDHYG2UTsBf13hUnbY-niY-rEIK4NP-hT8BY_xjcqRQgvHxnubkWN7AWFT7i8ie1cKJy23_Hw7SHAB776e7jXgf-7Pmgegi7nxR0740SvfUigbrf_sT0yiueksODqOp-qRaxSlDPs50fA_ze9OT29IERiTiZ9efJKZ8SZ0lXq19GOF5t48nWL7JinQV_nj8D1BUT7cyhBjM2QSNm-py0]--></g></svg>