<?xml version="1.0" encoding="us-ascii" standalone="no"?><svg xmlns="http://www.w3.org/2000/svg" xmlns:xlink="http://www.w3.org/1999/xlink" contentStyleType="text/css" height="914px" preserveAspectRatio="none" style="width:1029px;height:914px;background:#FFFFFF;" version="1.1" viewBox="0 0 1029 914" width="1029px" zoomAndPan="magnify"><defs/><g><!--class client--><g id="elem_client"><rect codeLine="5" fill="#F1F1F1" height="136.0469" id="client" rx="2.5" ry="2.5" style="stroke:#181818;stroke-width:0.5;" width="165" x="191.95" y="415.5"/><ellipse cx="246.7" cy="431.5" fill="#ADD1B2" rx="11" ry="11" style="stroke:#181818;stroke-width:1.0;"/><path d="M245.5594,432.2969 L245.5594,434.7969 L249.8875,434.7969 L249.8875,433.875 Q249.8875,433.2656 250.1297,433 Q250.3719,432.7344 250.7469,432.7344 Q251.1219,432.7344 251.3563,433 Q251.5906,433.2656 251.5906,433.875 L251.5906,436.5 L243.5906,436.5 Q242.9656,436.5 242.7078,436.2656 Q242.45,436.0313 242.45,435.6406 Q242.45,435.2656 242.7156,435.0313 Q242.9813,434.7969 243.5906,434.7969 L243.8563,434.7969 L243.8563,428.1406 L243.5906,428.1406 Q242.9656,428.1406 242.7078,427.9063 Q242.45,427.6719 242.45,427.2813 Q242.45,426.9063 242.7078,426.6719 Q242.9656,426.4375 243.5906,426.4375 L251.2156,426.4375 L251.2156,429.0313 Q251.2156,429.6406 250.9891,429.8984 Q250.7625,430.1563 250.3719,430.1563 Q249.9969,430.1563 249.7625,429.8984 Q249.5281,429.6406 249.5281,429.0313 L249.5281,428.1406 L245.5594,428.1406 L245.5594,430.5938 L247.0438,430.5938 Q247.0438,429.9375 247.1688,429.75 Q247.4344,429.3438 247.9031,429.3438 Q248.2781,429.3438 248.5125,429.6016 Q248.7469,429.8594 248.7469,430.4688 L248.7469,432.4375 Q248.7469,432.9844 248.6219,433.1719 Q248.3563,433.5625 247.9031,433.5625 Q247.4344,433.5625 247.1688,433.1563 Q247.0438,432.9688 247.0438,432.2969 L245.5594,432.2969 Z " fill="#000000"/><text fill="#000000" font-family="sans-serif" font-size="14" lengthAdjust="spacing" textLength="47" x="267.2" y="437.2285">&#1050;&#1083;&#1080;&#1077;&#1085;&#1090;</text><line style="stroke:#181818;stroke-width:0.5;" x1="192.95" x2="355.95" y1="447.5" y2="447.5"/><ellipse cx="202.95" cy="461.8047" fill="#000000" rx="3" ry="3" style="stroke:#000000;stroke-width:1.0;"/><text fill="#000000" font-family="sans-serif" font-size="14" lengthAdjust="spacing" textLength="46" x="211.95" y="466.0332">id: uuid</text><line style="stroke:#181818;stroke-width:1.0;" x1="192.95" x2="355.95" y1="473.1094" y2="473.1094"/><ellipse cx="202.95" cy="487.4141" fill="#000000" rx="3" ry="3" style="stroke:#000000;stroke-width:1.0;"/><text fill="#000000" font-family="sans-serif" font-size="14" lengthAdjust="spacing" textLength="109" x="211.95" y="491.6426">first_name: string</text><ellipse cx="202.95" cy="505.0234" fill="#000000" rx="3" ry="3" style="stroke:#000000;stroke-width:1.0;"/><text fill="#000000" font-family="sans-serif" font-size="14" lengthAdjust="spacing" textLength="108" x="211.95" y="509.252">last_name: string</text><text fill="#000000" font-family="sans-serif" font-size="14" lengthAdjust="spacing" textLength="102" x="211.95" y="526.8613">patronym: string</text><ellipse cx="202.95" cy="540.2422" fill="#000000" rx="3" ry="3" style="stroke:#000000;stroke-width:1.0;"/><text fill="#000000" font-family="sans-serif" font-size="14" lengthAdjust="spacing" textLength="139" x="211.95" y="544.4707">phone_number: string</text></g><!--class vehicle--><g id="elem_vehicle"><rect codeLine="14" fill="#F1F1F1" height="171.2656" id="vehicle" rx="2.5" ry="2.5" style="stroke:#181818;stroke-width:0.5;" width="141" x="407.95" y="398"/><ellipse cx="447.7" cy="414" fill="#ADD1B2" rx="11" ry="11" style="stroke:#181818;stroke-width:1.0;"/><path d="M446.5594,414.7969 L446.5594,417.2969 L450.8875,417.2969 L450.8875,416.375 Q450.8875,415.7656 451.1297,415.5 Q451.3719,415.2344 451.7469,415.2344 Q452.1219,415.2344 452.3563,415.5 Q452.5906,415.7656 452.5906,416.375 L452.5906,419 L444.5906,419 Q443.9656,419 443.7078,418.7656 Q443.45,418.5313 443.45,418.1406 Q443.45,417.7656 443.7156,417.5313 Q443.9813,417.2969 444.5906,417.2969 L444.8563,417.2969 L444.8563,410.6406 L444.5906,410.6406 Q443.9656,410.6406 443.7078,410.4063 Q443.45,410.1719 443.45,409.7813 Q443.45,409.4063 443.7078,409.1719 Q443.9656,408.9375 444.5906,408.9375 L452.2156,408.9375 L452.2156,411.5313 Q452.2156,412.1406 451.9891,412.3984 Q451.7625,412.6563 451.3719,412.6563 Q450.9969,412.6563 450.7625,412.3984 Q450.5281,412.1406 450.5281,411.5313 L450.5281,410.6406 L446.5594,410.6406 L446.5594,413.0938 L448.0438,413.0938 Q448.0438,412.4375 448.1688,412.25 Q448.4344,411.8438 448.9031,411.8438 Q449.2781,411.8438 449.5125,412.1016 Q449.7469,412.3594 449.7469,412.9688 L449.7469,414.9375 Q449.7469,415.4844 449.6219,415.6719 Q449.3563,416.0625 448.9031,416.0625 Q448.4344,416.0625 448.1688,415.6563 Q448.0438,415.4688 448.0438,414.7969 L446.5594,414.7969 Z " fill="#000000"/><text fill="#000000" font-family="sans-serif" font-size="14" lengthAdjust="spacing" textLength="54" x="467.2" y="419.7285">&#1052;&#1072;&#1096;&#1080;&#1085;&#1072;</text><line style="stroke:#181818;stroke-width:0.5;" x1="408.95" x2="547.95" y1="430" y2="430"/><ellipse cx="418.95" cy="444.3047" fill="#000000" rx="3" ry="3" style="stroke:#000000;stroke-width:1.0;"/><text fill="#000000" font-family="sans-serif" font-size="14" lengthAdjust="spacing" textLength="46" x="427.95" y="448.5332">id: uuid</text><line style="stroke:#181818;stroke-width:1.0;" x1="408.95" x2="547.95" y1="455.6094" y2="455.6094"/><ellipse cx="418.95" cy="469.9141" fill="#000000" rx="3" ry="3" style="stroke:#000000;stroke-width:1.0;"/><text fill="#000000" font-family="sans-serif" font-size="14" lengthAdjust="spacing" textLength="61" x="427.95" y="474.1426">vin: string</text><ellipse cx="418.95" cy="487.5234" fill="#000000" rx="3" ry="3" style="stroke:#000000;stroke-width:1.0;"/><text fill="#000000" font-family="sans-serif" font-size="14" lengthAdjust="spacing" textLength="115" x="427.95" y="491.752">govNumber: string</text><ellipse cx="418.95" cy="505.1328" fill="#000000" rx="3" ry="3" style="stroke:#000000;stroke-width:1.0;"/><text fill="#000000" font-family="sans-serif" font-size="14" lengthAdjust="spacing" textLength="77" x="427.95" y="509.3613">make: string</text><ellipse cx="418.95" cy="522.7422" fill="#000000" rx="3" ry="3" style="stroke:#000000;stroke-width:1.0;"/><text fill="#000000" font-family="sans-serif" font-size="14" lengthAdjust="spacing" textLength="81" x="427.95" y="526.9707">model: string</text><ellipse cx="418.95" cy="540.3516" fill="#000000" rx="3" ry="3" style="stroke:#000000;stroke-width:1.0;"/><text fill="#000000" font-family="sans-serif" font-size="14" lengthAdjust="spacing" textLength="59" x="427.95" y="544.5801">year: uint</text><ellipse cx="418.95" cy="557.9609" fill="#000000" rx="3" ry="3" style="stroke:#000000;stroke-width:1.0;"/><text fill="#000000" font-family="sans-serif" font-size="14" lengthAdjust="spacing" textLength="101" x="427.95" y="562.1895">bodytype: string</text></g><!--class client_car--><g id="elem_client_car"><rect codeLine="25" fill="#F1F1F1" height="83.2188" id="client_car" rx="2.5" ry="2.5" style="stroke:#181818;stroke-width:0.5;" width="141" x="254.95" y="655"/><ellipse cx="269.95" cy="671" fill="#ADD1B2" rx="11" ry="11" style="stroke:#181818;stroke-width:1.0;"/><path d="M268.8094,671.7969 L268.8094,674.2969 L273.1375,674.2969 L273.1375,673.375 Q273.1375,672.7656 273.3797,672.5 Q273.6219,672.2344 273.9969,672.2344 Q274.3719,672.2344 274.6063,672.5 Q274.8406,672.7656 274.8406,673.375 L274.8406,676 L266.8406,676 Q266.2156,676 265.9578,675.7656 Q265.7,675.5313 265.7,675.1406 Q265.7,674.7656 265.9656,674.5313 Q266.2313,674.2969 266.8406,674.2969 L267.1063,674.2969 L267.1063,667.6406 L266.8406,667.6406 Q266.2156,667.6406 265.9578,667.4063 Q265.7,667.1719 265.7,666.7813 Q265.7,666.4063 265.9578,666.1719 Q266.2156,665.9375 266.8406,665.9375 L274.4656,665.9375 L274.4656,668.5313 Q274.4656,669.1406 274.2391,669.3984 Q274.0125,669.6563 273.6219,669.6563 Q273.2469,669.6563 273.0125,669.3984 Q272.7781,669.1406 272.7781,668.5313 L272.7781,667.6406 L268.8094,667.6406 L268.8094,670.0938 L270.2938,670.0938 Q270.2938,669.4375 270.4188,669.25 Q270.6844,668.8438 271.1531,668.8438 Q271.5281,668.8438 271.7625,669.1016 Q271.9969,669.3594 271.9969,669.9688 L271.9969,671.9375 Q271.9969,672.4844 271.8719,672.6719 Q271.6063,673.0625 271.1531,673.0625 Q270.6844,673.0625 270.4188,672.6563 Q270.2938,672.4688 270.2938,671.7969 L268.8094,671.7969 Z " fill="#000000"/><text fill="#000000" font-family="sans-serif" font-size="14" lengthAdjust="spacing" textLength="109" x="283.95" y="676.7285">&#1050;&#1083;&#1080;&#1077;&#1085;&#1090;+&#1052;&#1072;&#1096;&#1080;&#1085;&#1072;</text><line style="stroke:#181818;stroke-width:0.5;" x1="255.95" x2="394.95" y1="687" y2="687"/><ellipse cx="265.95" cy="701.3047" fill="#000000" rx="3" ry="3" style="stroke:#000000;stroke-width:1.0;"/><text fill="#000000" font-family="sans-serif" font-size="14" lengthAdjust="spacing" textLength="87" x="274.95" y="705.5332">client_id: uuid</text><ellipse cx="265.95" cy="718.9141" fill="#000000" rx="3" ry="3" style="stroke:#000000;stroke-width:1.0;"/><text fill="#000000" font-family="sans-serif" font-size="14" lengthAdjust="spacing" textLength="98" x="274.95" y="723.1426">vehicle_id: uuid</text><line style="stroke:#181818;stroke-width:1.0;" x1="255.95" x2="394.95" y1="730.2188" y2="730.2188"/></g><!--class carwash--><g id="elem_carwash"><rect codeLine="34" fill="#F1F1F1" height="83.2188" id="carwash" rx="2.5" ry="2.5" style="stroke:#181818;stroke-width:0.5;" width="101" x="154.95" y="824"/><ellipse cx="182.55" cy="840" fill="#ADD1B2" rx="11" ry="11" style="stroke:#181818;stroke-width:1.0;"/><path d="M181.4094,840.7969 L181.4094,843.2969 L185.7375,843.2969 L185.7375,842.375 Q185.7375,841.7656 185.9797,841.5 Q186.2219,841.2344 186.5969,841.2344 Q186.9719,841.2344 187.2062,841.5 Q187.4406,841.7656 187.4406,842.375 L187.4406,845 L179.4406,845 Q178.8156,845 178.5578,844.7656 Q178.3,844.5313 178.3,844.1406 Q178.3,843.7656 178.5656,843.5313 Q178.8312,843.2969 179.4406,843.2969 L179.7062,843.2969 L179.7062,836.6406 L179.4406,836.6406 Q178.8156,836.6406 178.5578,836.4063 Q178.3,836.1719 178.3,835.7813 Q178.3,835.4063 178.5578,835.1719 Q178.8156,834.9375 179.4406,834.9375 L187.0656,834.9375 L187.0656,837.5313 Q187.0656,838.1406 186.8391,838.3984 Q186.6125,838.6563 186.2219,838.6563 Q185.8469,838.6563 185.6125,838.3984 Q185.3781,838.1406 185.3781,837.5313 L185.3781,836.6406 L181.4094,836.6406 L181.4094,839.0938 L182.8937,839.0938 Q182.8937,838.4375 183.0187,838.25 Q183.2844,837.8438 183.7531,837.8438 Q184.1281,837.8438 184.3625,838.1016 Q184.5969,838.3594 184.5969,838.9688 L184.5969,840.9375 Q184.5969,841.4844 184.4719,841.6719 Q184.2062,842.0625 183.7531,842.0625 Q183.2844,842.0625 183.0187,841.6563 Q182.8937,841.4688 182.8937,840.7969 L181.4094,840.7969 Z " fill="#000000"/><text fill="#000000" font-family="sans-serif" font-size="14" lengthAdjust="spacing" textLength="41" x="199.35" y="845.7285">&#1052;&#1086;&#1081;&#1082;&#1072;</text><line style="stroke:#181818;stroke-width:0.5;" x1="155.95" x2="254.95" y1="856" y2="856"/><ellipse cx="165.95" cy="870.3047" fill="#000000" rx="3" ry="3" style="stroke:#000000;stroke-width:1.0;"/><text fill="#000000" font-family="sans-serif" font-size="14" lengthAdjust="spacing" textLength="46" x="174.95" y="874.5332">id: uuid</text><line style="stroke:#181818;stroke-width:1.0;" x1="155.95" x2="254.95" y1="881.6094" y2="881.6094"/><ellipse cx="165.95" cy="895.9141" fill="#000000" rx="3" ry="3" style="stroke:#000000;stroke-width:1.0;"/><text fill="#000000" font-family="sans-serif" font-size="14" lengthAdjust="spacing" textLength="75" x="174.95" y="900.1426">city_id: uuid</text></g><!--class box--><g id="elem_box"><rect codeLine="40" fill="#F1F1F1" height="83.2188" id="box" rx="2.5" ry="2.5" style="stroke:#181818;stroke-width:0.5;" width="132" x="538.45" y="655"/><ellipse cx="585.2" cy="671" fill="#ADD1B2" rx="11" ry="11" style="stroke:#181818;stroke-width:1.0;"/><path d="M584.0594,671.7969 L584.0594,674.2969 L588.3875,674.2969 L588.3875,673.375 Q588.3875,672.7656 588.6297,672.5 Q588.8719,672.2344 589.2469,672.2344 Q589.6219,672.2344 589.8563,672.5 Q590.0906,672.7656 590.0906,673.375 L590.0906,676 L582.0906,676 Q581.4656,676 581.2078,675.7656 Q580.95,675.5313 580.95,675.1406 Q580.95,674.7656 581.2156,674.5313 Q581.4813,674.2969 582.0906,674.2969 L582.3563,674.2969 L582.3563,667.6406 L582.0906,667.6406 Q581.4656,667.6406 581.2078,667.4063 Q580.95,667.1719 580.95,666.7813 Q580.95,666.4063 581.2078,666.1719 Q581.4656,665.9375 582.0906,665.9375 L589.7156,665.9375 L589.7156,668.5313 Q589.7156,669.1406 589.4891,669.3984 Q589.2625,669.6563 588.8719,669.6563 Q588.4969,669.6563 588.2625,669.3984 Q588.0281,669.1406 588.0281,668.5313 L588.0281,667.6406 L584.0594,667.6406 L584.0594,670.0938 L585.5438,670.0938 Q585.5438,669.4375 585.6688,669.25 Q585.9344,668.8438 586.4031,668.8438 Q586.7781,668.8438 587.0125,669.1016 Q587.2469,669.3594 587.2469,669.9688 L587.2469,671.9375 Q587.2469,672.4844 587.1219,672.6719 Q586.8563,673.0625 586.4031,673.0625 Q585.9344,673.0625 585.6688,672.6563 Q585.5438,672.4688 585.5438,671.7969 L584.0594,671.7969 Z " fill="#000000"/><text fill="#000000" font-family="sans-serif" font-size="14" lengthAdjust="spacing" textLength="30" x="605.7" y="676.7285">&#1041;&#1086;&#1082;&#1089;</text><line style="stroke:#181818;stroke-width:0.5;" x1="539.45" x2="669.45" y1="687" y2="687"/><ellipse cx="549.45" cy="701.3047" fill="#000000" rx="3" ry="3" style="stroke:#000000;stroke-width:1.0;"/><text fill="#000000" font-family="sans-serif" font-size="14" lengthAdjust="spacing" textLength="42" x="558.45" y="705.5332">id: uint</text><line style="stroke:#181818;stroke-width:1.0;" x1="539.45" x2="669.45" y1="712.6094" y2="712.6094"/><ellipse cx="549.45" cy="726.9141" fill="#000000" rx="3" ry="3" style="stroke:#000000;stroke-width:1.0;"/><text fill="#000000" font-family="sans-serif" font-size="14" lengthAdjust="spacing" textLength="106" x="558.45" y="731.1426">carwash_id: uuid</text></g><!--class timeslot--><g id="elem_timeslot"><rect codeLine="47" fill="#F1F1F1" height="100.8281" id="timeslot" rx="2.5" ry="2.5" style="stroke:#181818;stroke-width:0.5;" width="152" x="600.45" y="433.5"/><ellipse cx="655.7" cy="449.5" fill="#ADD1B2" rx="11" ry="11" style="stroke:#181818;stroke-width:1.0;"/><path d="M654.5594,450.2969 L654.5594,452.7969 L658.8875,452.7969 L658.8875,451.875 Q658.8875,451.2656 659.1297,451 Q659.3719,450.7344 659.7469,450.7344 Q660.1219,450.7344 660.3563,451 Q660.5906,451.2656 660.5906,451.875 L660.5906,454.5 L652.5906,454.5 Q651.9656,454.5 651.7078,454.2656 Q651.45,454.0313 651.45,453.6406 Q651.45,453.2656 651.7156,453.0313 Q651.9813,452.7969 652.5906,452.7969 L652.8563,452.7969 L652.8563,446.1406 L652.5906,446.1406 Q651.9656,446.1406 651.7078,445.9063 Q651.45,445.6719 651.45,445.2813 Q651.45,444.9063 651.7078,444.6719 Q651.9656,444.4375 652.5906,444.4375 L660.2156,444.4375 L660.2156,447.0313 Q660.2156,447.6406 659.9891,447.8984 Q659.7625,448.1563 659.3719,448.1563 Q658.9969,448.1563 658.7625,447.8984 Q658.5281,447.6406 658.5281,447.0313 L658.5281,446.1406 L654.5594,446.1406 L654.5594,448.5938 L656.0438,448.5938 Q656.0438,447.9375 656.1688,447.75 Q656.4344,447.3438 656.9031,447.3438 Q657.2781,447.3438 657.5125,447.6016 Q657.7469,447.8594 657.7469,448.4688 L657.7469,450.4375 Q657.7469,450.9844 657.6219,451.1719 Q657.3563,451.5625 656.9031,451.5625 Q656.4344,451.5625 656.1688,451.1563 Q656.0438,450.9688 656.0438,450.2969 L654.5594,450.2969 Z " fill="#000000"/><text fill="#000000" font-family="sans-serif" font-size="14" lengthAdjust="spacing" textLength="33" x="676.2" y="455.2285">&#1057;&#1083;&#1086;&#1090;</text><line style="stroke:#181818;stroke-width:0.5;" x1="601.45" x2="751.45" y1="465.5" y2="465.5"/><ellipse cx="611.45" cy="479.8047" fill="#000000" rx="3" ry="3" style="stroke:#000000;stroke-width:1.0;"/><text fill="#000000" font-family="sans-serif" font-size="14" lengthAdjust="spacing" textLength="46" x="620.45" y="484.0332">id: uuid</text><line style="stroke:#181818;stroke-width:1.0;" x1="601.45" x2="751.45" y1="491.1094" y2="491.1094"/><ellipse cx="611.45" cy="505.4141" fill="#000000" rx="3" ry="3" style="stroke:#000000;stroke-width:1.0;"/><text fill="#000000" font-family="sans-serif" font-size="14" lengthAdjust="spacing" textLength="72" x="620.45" y="509.6426">box_id: uint</text><ellipse cx="611.45" cy="523.0234" fill="#000000" rx="3" ry="3" style="stroke:#000000;stroke-width:1.0;"/><text fill="#000000" font-family="sans-serif" font-size="14" lengthAdjust="spacing" textLength="126" x="620.45" y="527.252">timestamp: datetime</text></g><!--class service--><g id="elem_service"><rect codeLine="55" fill="#F1F1F1" height="100.8281" id="service" rx="2.5" ry="2.5" style="stroke:#181818;stroke-width:0.5;" width="112" x="169.45" y="194"/><ellipse cx="200.65" cy="210" fill="#ADD1B2" rx="11" ry="11" style="stroke:#181818;stroke-width:1.0;"/><path d="M199.5094,210.7969 L199.5094,213.2969 L203.8375,213.2969 L203.8375,212.375 Q203.8375,211.7656 204.0797,211.5 Q204.3219,211.2344 204.6969,211.2344 Q205.0719,211.2344 205.3062,211.5 Q205.5406,211.7656 205.5406,212.375 L205.5406,215 L197.5406,215 Q196.9156,215 196.6578,214.7656 Q196.4,214.5313 196.4,214.1406 Q196.4,213.7656 196.6656,213.5313 Q196.9312,213.2969 197.5406,213.2969 L197.8062,213.2969 L197.8062,206.6406 L197.5406,206.6406 Q196.9156,206.6406 196.6578,206.4063 Q196.4,206.1719 196.4,205.7813 Q196.4,205.4063 196.6578,205.1719 Q196.9156,204.9375 197.5406,204.9375 L205.1656,204.9375 L205.1656,207.5313 Q205.1656,208.1406 204.9391,208.3984 Q204.7125,208.6563 204.3219,208.6563 Q203.9469,208.6563 203.7125,208.3984 Q203.4781,208.1406 203.4781,207.5313 L203.4781,206.6406 L199.5094,206.6406 L199.5094,209.0938 L200.9937,209.0938 Q200.9937,208.4375 201.1187,208.25 Q201.3844,207.8438 201.8531,207.8438 Q202.2281,207.8438 202.4625,208.1016 Q202.6969,208.3594 202.6969,208.9688 L202.6969,210.9375 Q202.6969,211.4844 202.5719,211.6719 Q202.3062,212.0625 201.8531,212.0625 Q201.3844,212.0625 201.1187,211.6563 Q200.9937,211.4688 200.9937,210.7969 L199.5094,210.7969 Z " fill="#000000"/><text fill="#000000" font-family="sans-serif" font-size="14" lengthAdjust="spacing" textLength="44" x="218.25" y="215.7285">&#1059;&#1089;&#1083;&#1091;&#1075;&#1072;</text><line style="stroke:#181818;stroke-width:0.5;" x1="170.45" x2="280.45" y1="226" y2="226"/><ellipse cx="180.45" cy="240.3047" fill="#000000" rx="3" ry="3" style="stroke:#000000;stroke-width:1.0;"/><text fill="#000000" font-family="sans-serif" font-size="14" lengthAdjust="spacing" textLength="46" x="189.45" y="244.5332">id: uuid</text><line style="stroke:#181818;stroke-width:1.0;" x1="170.45" x2="280.45" y1="251.6094" y2="251.6094"/><ellipse cx="180.45" cy="265.9141" fill="#000000" rx="3" ry="3" style="stroke:#000000;stroke-width:1.0;"/><text fill="#000000" font-family="sans-serif" font-size="14" lengthAdjust="spacing" textLength="86" x="189.45" y="270.1426">duration: time</text><ellipse cx="180.45" cy="283.5234" fill="#000000" rx="3" ry="3" style="stroke:#000000;stroke-width:1.0;"/><text fill="#000000" font-family="sans-serif" font-size="14" lengthAdjust="spacing" textLength="76" x="189.45" y="287.752">cost: money</text></g><!--class carwash_service--><g id="elem_carwash_service"><rect codeLine="62" fill="#F1F1F1" height="83.2188" id="carwash_service" rx="2.5" ry="2.5" style="stroke:#181818;stroke-width:0.5;" width="132" x="33.45" y="7"/><ellipse cx="51.6" cy="23" fill="#ADD1B2" rx="11" ry="11" style="stroke:#181818;stroke-width:1.0;"/><path d="M50.4594,23.7969 L50.4594,26.2969 L54.7875,26.2969 L54.7875,25.375 Q54.7875,24.7656 55.0297,24.5 Q55.2719,24.2344 55.6469,24.2344 Q56.0219,24.2344 56.2562,24.5 Q56.4906,24.7656 56.4906,25.375 L56.4906,28 L48.4906,28 Q47.8656,28 47.6078,27.7656 Q47.35,27.5313 47.35,27.1406 Q47.35,26.7656 47.6156,26.5313 Q47.8812,26.2969 48.4906,26.2969 L48.7562,26.2969 L48.7562,19.6406 L48.4906,19.6406 Q47.8656,19.6406 47.6078,19.4063 Q47.35,19.1719 47.35,18.7813 Q47.35,18.4063 47.6078,18.1719 Q47.8656,17.9375 48.4906,17.9375 L56.1156,17.9375 L56.1156,20.5313 Q56.1156,21.1406 55.8891,21.3984 Q55.6625,21.6563 55.2719,21.6563 Q54.8969,21.6563 54.6625,21.3984 Q54.4281,21.1406 54.4281,20.5313 L54.4281,19.6406 L50.4594,19.6406 L50.4594,22.0938 L51.9437,22.0938 Q51.9437,21.4375 52.0687,21.25 Q52.3344,20.8438 52.8031,20.8438 Q53.1781,20.8438 53.4125,21.1016 Q53.6469,21.3594 53.6469,21.9688 L53.6469,23.9375 Q53.6469,24.4844 53.5219,24.6719 Q53.2562,25.0625 52.8031,25.0625 Q52.3344,25.0625 52.0687,24.6563 Q51.9437,24.4688 51.9437,23.7969 L50.4594,23.7969 Z " fill="#000000"/><text fill="#000000" font-family="sans-serif" font-size="14" lengthAdjust="spacing" textLength="93" x="66.3" y="28.7285">&#1052;&#1086;&#1081;&#1082;&#1072;+&#1059;&#1089;&#1083;&#1091;&#1075;&#1072;</text><line style="stroke:#181818;stroke-width:0.5;" x1="34.45" x2="164.45" y1="39" y2="39"/><ellipse cx="44.45" cy="53.3047" fill="#000000" rx="3" ry="3" style="stroke:#000000;stroke-width:1.0;"/><text fill="#000000" font-family="sans-serif" font-size="14" lengthAdjust="spacing" textLength="106" x="53.45" y="57.5332">carwash_id: uuid</text><ellipse cx="44.45" cy="70.9141" fill="#000000" rx="3" ry="3" style="stroke:#000000;stroke-width:1.0;"/><text fill="#000000" font-family="sans-serif" font-size="14" lengthAdjust="spacing" textLength="99" x="53.45" y="75.1426">service_id: uuid</text><line style="stroke:#181818;stroke-width:1.0;" x1="34.45" x2="164.45" y1="82.2188" y2="82.2188"/></g><!--class position--><g id="elem_position"><rect codeLine="71" fill="#F1F1F1" height="83.2188" id="position" rx="2.5" ry="2.5" style="stroke:#181818;stroke-width:0.5;" width="104" x="803.45" y="442"/><ellipse cx="818.45" cy="458" fill="#ADD1B2" rx="11" ry="11" style="stroke:#181818;stroke-width:1.0;"/><path d="M817.3094,458.7969 L817.3094,461.2969 L821.6375,461.2969 L821.6375,460.375 Q821.6375,459.7656 821.8797,459.5 Q822.1219,459.2344 822.4969,459.2344 Q822.8719,459.2344 823.1063,459.5 Q823.3406,459.7656 823.3406,460.375 L823.3406,463 L815.3406,463 Q814.7156,463 814.4578,462.7656 Q814.2,462.5313 814.2,462.1406 Q814.2,461.7656 814.4656,461.5313 Q814.7313,461.2969 815.3406,461.2969 L815.6063,461.2969 L815.6063,454.6406 L815.3406,454.6406 Q814.7156,454.6406 814.4578,454.4063 Q814.2,454.1719 814.2,453.7813 Q814.2,453.4063 814.4578,453.1719 Q814.7156,452.9375 815.3406,452.9375 L822.9656,452.9375 L822.9656,455.5313 Q822.9656,456.1406 822.7391,456.3984 Q822.5125,456.6563 822.1219,456.6563 Q821.7469,456.6563 821.5125,456.3984 Q821.2781,456.1406 821.2781,455.5313 L821.2781,454.6406 L817.3094,454.6406 L817.3094,457.0938 L818.7938,457.0938 Q818.7938,456.4375 818.9188,456.25 Q819.1844,455.8438 819.6531,455.8438 Q820.0281,455.8438 820.2625,456.1016 Q820.4969,456.3594 820.4969,456.9688 L820.4969,458.9375 Q820.4969,459.4844 820.3719,459.6719 Q820.1063,460.0625 819.6531,460.0625 Q819.1844,460.0625 818.9188,459.6563 Q818.7938,459.4688 818.7938,458.7969 L817.3094,458.7969 Z " fill="#000000"/><text fill="#000000" font-family="sans-serif" font-size="14" lengthAdjust="spacing" textLength="72" x="832.45" y="463.7285">&#1044;&#1086;&#1083;&#1078;&#1085;&#1086;&#1089;&#1090;&#1100;</text><line style="stroke:#181818;stroke-width:0.5;" x1="804.45" x2="906.45" y1="474" y2="474"/><ellipse cx="814.45" cy="488.3047" fill="#000000" rx="3" ry="3" style="stroke:#000000;stroke-width:1.0;"/><text fill="#000000" font-family="sans-serif" font-size="14" lengthAdjust="spacing" textLength="46" x="823.45" y="492.5332">id: uuid</text><line style="stroke:#181818;stroke-width:1.0;" x1="804.45" x2="906.45" y1="499.6094" y2="499.6094"/><ellipse cx="814.45" cy="513.9141" fill="#000000" rx="3" ry="3" style="stroke:#000000;stroke-width:1.0;"/><text fill="#000000" font-family="sans-serif" font-size="14" lengthAdjust="spacing" textLength="78" x="823.45" y="518.1426">name: string</text></g><!--class employee--><g id="elem_employee"><rect codeLine="77" fill="#F1F1F1" height="136.0469" id="employee" rx="2.5" ry="2.5" style="stroke:#181818;stroke-width:0.5;" width="135" x="626.95" y="176"/><ellipse cx="660.4" cy="192" fill="#ADD1B2" rx="11" ry="11" style="stroke:#181818;stroke-width:1.0;"/><path d="M659.2594,192.7969 L659.2594,195.2969 L663.5875,195.2969 L663.5875,194.375 Q663.5875,193.7656 663.8297,193.5 Q664.0719,193.2344 664.4469,193.2344 Q664.8219,193.2344 665.0563,193.5 Q665.2906,193.7656 665.2906,194.375 L665.2906,197 L657.2906,197 Q656.6656,197 656.4078,196.7656 Q656.15,196.5313 656.15,196.1406 Q656.15,195.7656 656.4156,195.5313 Q656.6813,195.2969 657.2906,195.2969 L657.5563,195.2969 L657.5563,188.6406 L657.2906,188.6406 Q656.6656,188.6406 656.4078,188.4063 Q656.15,188.1719 656.15,187.7813 Q656.15,187.4063 656.4078,187.1719 Q656.6656,186.9375 657.2906,186.9375 L664.9156,186.9375 L664.9156,189.5313 Q664.9156,190.1406 664.6891,190.3984 Q664.4625,190.6563 664.0719,190.6563 Q663.6969,190.6563 663.4625,190.3984 Q663.2281,190.1406 663.2281,189.5313 L663.2281,188.6406 L659.2594,188.6406 L659.2594,191.0938 L660.7438,191.0938 Q660.7438,190.4375 660.8688,190.25 Q661.1344,189.8438 661.6031,189.8438 Q661.9781,189.8438 662.2125,190.1016 Q662.4469,190.3594 662.4469,190.9688 L662.4469,192.9375 Q662.4469,193.4844 662.3219,193.6719 Q662.0563,194.0625 661.6031,194.0625 Q661.1344,194.0625 660.8688,193.6563 Q660.7438,193.4688 660.7438,192.7969 L659.2594,192.7969 Z " fill="#000000"/><text fill="#000000" font-family="sans-serif" font-size="14" lengthAdjust="spacing" textLength="62" x="678.5" y="197.7285">&#1056;&#1072;&#1073;&#1086;&#1090;&#1085;&#1080;&#1082;</text><line style="stroke:#181818;stroke-width:0.5;" x1="627.95" x2="760.95" y1="208" y2="208"/><ellipse cx="637.95" cy="222.3047" fill="#000000" rx="3" ry="3" style="stroke:#000000;stroke-width:1.0;"/><text fill="#000000" font-family="sans-serif" font-size="14" lengthAdjust="spacing" textLength="46" x="646.95" y="226.5332">id: uuid</text><line style="stroke:#181818;stroke-width:1.0;" x1="627.95" x2="760.95" y1="233.6094" y2="233.6094"/><ellipse cx="637.95" cy="247.9141" fill="#000000" rx="3" ry="3" style="stroke:#000000;stroke-width:1.0;"/><text fill="#000000" font-family="sans-serif" font-size="14" lengthAdjust="spacing" textLength="109" x="646.95" y="252.1426">first_name: string</text><ellipse cx="637.95" cy="265.5234" fill="#000000" rx="3" ry="3" style="stroke:#000000;stroke-width:1.0;"/><text fill="#000000" font-family="sans-serif" font-size="14" lengthAdjust="spacing" textLength="108" x="646.95" y="269.752">last_name: string</text><text fill="#000000" font-family="sans-serif" font-size="14" lengthAdjust="spacing" textLength="102" x="646.95" y="287.3613">patronym: string</text><ellipse cx="637.95" cy="300.7422" fill="#000000" rx="3" ry="3" style="stroke:#000000;stroke-width:1.0;"/><text fill="#000000" font-family="sans-serif" font-size="14" lengthAdjust="spacing" textLength="103" x="646.95" y="304.9707">position_id: uuid</text></g><!--class order--><g id="elem_order"><rect codeLine="87" fill="#F1F1F1" height="118.4375" id="order" rx="2.5" ry="2.5" style="stroke:#181818;stroke-width:0.5;" width="128" x="415.45" y="185"/><ellipse cx="457.45" cy="201" fill="#ADD1B2" rx="11" ry="11" style="stroke:#181818;stroke-width:1.0;"/><path d="M456.3094,201.7969 L456.3094,204.2969 L460.6375,204.2969 L460.6375,203.375 Q460.6375,202.7656 460.8797,202.5 Q461.1219,202.2344 461.4969,202.2344 Q461.8719,202.2344 462.1063,202.5 Q462.3406,202.7656 462.3406,203.375 L462.3406,206 L454.3406,206 Q453.7156,206 453.4578,205.7656 Q453.2,205.5313 453.2,205.1406 Q453.2,204.7656 453.4656,204.5313 Q453.7313,204.2969 454.3406,204.2969 L454.6063,204.2969 L454.6063,197.6406 L454.3406,197.6406 Q453.7156,197.6406 453.4578,197.4063 Q453.2,197.1719 453.2,196.7813 Q453.2,196.4063 453.4578,196.1719 Q453.7156,195.9375 454.3406,195.9375 L461.9656,195.9375 L461.9656,198.5313 Q461.9656,199.1406 461.7391,199.3984 Q461.5125,199.6563 461.1219,199.6563 Q460.7469,199.6563 460.5125,199.3984 Q460.2781,199.1406 460.2781,198.5313 L460.2781,197.6406 L456.3094,197.6406 L456.3094,200.0938 L457.7938,200.0938 Q457.7938,199.4375 457.9188,199.25 Q458.1844,198.8438 458.6531,198.8438 Q459.0281,198.8438 459.2625,199.1016 Q459.4969,199.3594 459.4969,199.9688 L459.4969,201.9375 Q459.4969,202.4844 459.3719,202.6719 Q459.1063,203.0625 458.6531,203.0625 Q458.1844,203.0625 457.9188,202.6563 Q457.7938,202.4688 457.7938,201.7969 L456.3094,201.7969 Z " fill="#000000"/><text fill="#000000" font-family="sans-serif" font-size="14" lengthAdjust="spacing" textLength="36" x="477.45" y="206.7285">&#1047;&#1072;&#1082;&#1072;&#1079;</text><line style="stroke:#181818;stroke-width:0.5;" x1="416.45" x2="542.45" y1="217" y2="217"/><ellipse cx="426.45" cy="231.3047" fill="#000000" rx="3" ry="3" style="stroke:#000000;stroke-width:1.0;"/><text fill="#000000" font-family="sans-serif" font-size="14" lengthAdjust="spacing" textLength="46" x="435.45" y="235.5332">id: uuid</text><line style="stroke:#181818;stroke-width:1.0;" x1="416.45" x2="542.45" y1="242.6094" y2="242.6094"/><ellipse cx="426.45" cy="256.9141" fill="#000000" rx="3" ry="3" style="stroke:#000000;stroke-width:1.0;"/><text fill="#000000" font-family="sans-serif" font-size="14" lengthAdjust="spacing" textLength="87" x="435.45" y="261.1426">client_id: uuid</text><ellipse cx="426.45" cy="274.5234" fill="#000000" rx="3" ry="3" style="stroke:#000000;stroke-width:1.0;"/><text fill="#000000" font-family="sans-serif" font-size="14" lengthAdjust="spacing" textLength="98" x="435.45" y="278.752">vehicle_id: uuid</text><ellipse cx="426.45" cy="292.1328" fill="#000000" rx="3" ry="3" style="stroke:#000000;stroke-width:1.0;"/><text fill="#000000" font-family="sans-serif" font-size="14" lengthAdjust="spacing" textLength="102" x="435.45" y="296.3613">timeslot_id: uuid</text></g><!--class order_employee--><g id="elem_order_employee"><rect codeLine="98" fill="#F1F1F1" height="83.2188" id="order_employee" rx="2.5" ry="2.5" style="stroke:#181818;stroke-width:0.5;" width="141" x="542.95" y="7"/><ellipse cx="559.3" cy="23" fill="#ADD1B2" rx="11" ry="11" style="stroke:#181818;stroke-width:1.0;"/><path d="M558.1594,23.7969 L558.1594,26.2969 L562.4875,26.2969 L562.4875,25.375 Q562.4875,24.7656 562.7297,24.5 Q562.9719,24.2344 563.3469,24.2344 Q563.7219,24.2344 563.9563,24.5 Q564.1906,24.7656 564.1906,25.375 L564.1906,28 L556.1906,28 Q555.5656,28 555.3078,27.7656 Q555.05,27.5313 555.05,27.1406 Q555.05,26.7656 555.3156,26.5313 Q555.5813,26.2969 556.1906,26.2969 L556.4563,26.2969 L556.4563,19.6406 L556.1906,19.6406 Q555.5656,19.6406 555.3078,19.4063 Q555.05,19.1719 555.05,18.7813 Q555.05,18.4063 555.3078,18.1719 Q555.5656,17.9375 556.1906,17.9375 L563.8156,17.9375 L563.8156,20.5313 Q563.8156,21.1406 563.5891,21.3984 Q563.3625,21.6563 562.9719,21.6563 Q562.5969,21.6563 562.3625,21.3984 Q562.1281,21.1406 562.1281,20.5313 L562.1281,19.6406 L558.1594,19.6406 L558.1594,22.0938 L559.6438,22.0938 Q559.6438,21.4375 559.7688,21.25 Q560.0344,20.8438 560.5031,20.8438 Q560.8781,20.8438 561.1125,21.1016 Q561.3469,21.3594 561.3469,21.9688 L561.3469,23.9375 Q561.3469,24.4844 561.2219,24.6719 Q560.9563,25.0625 560.5031,25.0625 Q560.0344,25.0625 559.7688,24.6563 Q559.6438,24.4688 559.6438,23.7969 L558.1594,23.7969 Z " fill="#000000"/><text fill="#000000" font-family="sans-serif" font-size="14" lengthAdjust="spacing" textLength="106" x="573.6" y="28.7285">&#1047;&#1072;&#1082;&#1072;&#1079;+&#1056;&#1072;&#1073;&#1086;&#1090;&#1085;&#1080;&#1082;</text><line style="stroke:#181818;stroke-width:0.5;" x1="543.95" x2="682.95" y1="39" y2="39"/><ellipse cx="553.95" cy="53.3047" fill="#000000" rx="3" ry="3" style="stroke:#000000;stroke-width:1.0;"/><text fill="#000000" font-family="sans-serif" font-size="14" lengthAdjust="spacing" textLength="88" x="562.95" y="57.5332">order_id: uuid</text><ellipse cx="553.95" cy="70.9141" fill="#000000" rx="3" ry="3" style="stroke:#000000;stroke-width:1.0;"/><text fill="#000000" font-family="sans-serif" font-size="14" lengthAdjust="spacing" textLength="115" x="562.95" y="75.1426">employee_id: uuid</text><line style="stroke:#181818;stroke-width:1.0;" x1="543.95" x2="682.95" y1="82.2188" y2="82.2188"/></g><!--class order_service--><g id="elem_order_service"><rect codeLine="106" fill="#F1F1F1" height="83.2188" id="order_service" rx="2.5" ry="2.5" style="stroke:#181818;stroke-width:0.5;" width="125" x="243.95" y="7"/><ellipse cx="261.2" cy="23" fill="#ADD1B2" rx="11" ry="11" style="stroke:#181818;stroke-width:1.0;"/><path d="M260.0594,23.7969 L260.0594,26.2969 L264.3875,26.2969 L264.3875,25.375 Q264.3875,24.7656 264.6297,24.5 Q264.8719,24.2344 265.2469,24.2344 Q265.6219,24.2344 265.8563,24.5 Q266.0906,24.7656 266.0906,25.375 L266.0906,28 L258.0906,28 Q257.4656,28 257.2078,27.7656 Q256.95,27.5313 256.95,27.1406 Q256.95,26.7656 257.2156,26.5313 Q257.4813,26.2969 258.0906,26.2969 L258.3563,26.2969 L258.3563,19.6406 L258.0906,19.6406 Q257.4656,19.6406 257.2078,19.4063 Q256.95,19.1719 256.95,18.7813 Q256.95,18.4063 257.2078,18.1719 Q257.4656,17.9375 258.0906,17.9375 L265.7156,17.9375 L265.7156,20.5313 Q265.7156,21.1406 265.4891,21.3984 Q265.2625,21.6563 264.8719,21.6563 Q264.4969,21.6563 264.2625,21.3984 Q264.0281,21.1406 264.0281,20.5313 L264.0281,19.6406 L260.0594,19.6406 L260.0594,22.0938 L261.5438,22.0938 Q261.5438,21.4375 261.6688,21.25 Q261.9344,20.8438 262.4031,20.8438 Q262.7781,20.8438 263.0125,21.1016 Q263.2469,21.3594 263.2469,21.9688 L263.2469,23.9375 Q263.2469,24.4844 263.1219,24.6719 Q262.8563,25.0625 262.4031,25.0625 Q261.9344,25.0625 261.6688,24.6563 Q261.5438,24.4688 261.5438,23.7969 L260.0594,23.7969 Z " fill="#000000"/><text fill="#000000" font-family="sans-serif" font-size="14" lengthAdjust="spacing" textLength="88" x="275.7" y="28.7285">&#1047;&#1072;&#1082;&#1072;&#1079;+&#1059;&#1089;&#1083;&#1091;&#1075;&#1072;</text><line style="stroke:#181818;stroke-width:0.5;" x1="244.95" x2="367.95" y1="39" y2="39"/><ellipse cx="254.95" cy="53.3047" fill="#000000" rx="3" ry="3" style="stroke:#000000;stroke-width:1.0;"/><text fill="#000000" font-family="sans-serif" font-size="14" lengthAdjust="spacing" textLength="88" x="263.95" y="57.5332">order_id: uuid</text><ellipse cx="254.95" cy="70.9141" fill="#000000" rx="3" ry="3" style="stroke:#000000;stroke-width:1.0;"/><text fill="#000000" font-family="sans-serif" font-size="14" lengthAdjust="spacing" textLength="99" x="263.95" y="75.1426">service_id: uuid</text><line style="stroke:#181818;stroke-width:1.0;" x1="244.95" x2="367.95" y1="82.2188" y2="82.2188"/></g><!--link client to client_car--><g id="link_client_client_car"><path codeLine="31" d="M366.45,459.5 C409.11,459.5 377.37,517.77 357.45,555.5 C340.23,588.1 315.6,577.02 289.45,603 C270.9,621.43 263.63,626.17 255.45,651 C248.56,671.9 224.44,700.5 246.45,700.5 " fill="none" id="client-client_car" style="stroke:#181818;stroke-width:1.0;"/><line style="stroke:#181818;stroke-width:1.0;" x1="362.45" x2="362.45" y1="463.5" y2="455.5"/><line style="stroke:#181818;stroke-width:1.0;" x1="365.45" x2="365.45" y1="463.5" y2="455.5"/><line style="stroke:#181818;stroke-width:1.0;" x1="366.45" x2="358.45" y1="459.5" y2="459.5"/><line style="stroke:#181818;stroke-width:1.0;" x1="246.45" x2="254.45" y1="700.5" y2="694.5"/><line style="stroke:#181818;stroke-width:1.0;" x1="246.45" x2="254.45" y1="700.5" y2="706.5"/><line style="stroke:#181818;stroke-width:1.0;" x1="246.45" x2="254.45" y1="700.5" y2="700.5"/><line style="stroke:#181818;stroke-width:1.0;" x1="244.45" x2="244.45" y1="696.5" y2="704.5"/><text fill="#000000" font-family="sans-serif" font-size="13" lengthAdjust="spacing" textLength="137" x="290.45" y="617.4951">&#1055;&#1086;&#1083;&#1100;&#1079;&#1091;&#1077;&#1090;&#1089;&#1103; &#1084;&#1072;&#1096;&#1080;&#1085;&#1072;&#1084;&#1080;</text></g><!--link vehicle to client_car--><g id="link_vehicle_client_car"><path codeLine="32" d="M399.45,442.5 C370.44,442.5 398.74,545.67 408.45,573 C414.16,589.09 426.79,586.89 432.45,603 C435.09,610.55 433.83,613.12 432.45,621 C424.55,665.93 451.07,717.5 405.45,717.5 " fill="none" id="vehicle-client_car" style="stroke:#181818;stroke-width:1.0;"/><line style="stroke:#181818;stroke-width:1.0;" x1="403.45" x2="403.45" y1="438.5" y2="446.5"/><line style="stroke:#181818;stroke-width:1.0;" x1="400.45" x2="400.45" y1="438.5" y2="446.5"/><line style="stroke:#181818;stroke-width:1.0;" x1="399.45" x2="407.45" y1="442.5" y2="442.5"/><line style="stroke:#181818;stroke-width:1.0;" x1="405.45" x2="397.45" y1="717.5" y2="723.5"/><line style="stroke:#181818;stroke-width:1.0;" x1="405.45" x2="397.45" y1="717.5" y2="711.5"/><line style="stroke:#181818;stroke-width:1.0;" x1="405.45" x2="397.45" y1="717.5" y2="717.5"/><line style="stroke:#181818;stroke-width:1.0;" x1="407.45" x2="407.45" y1="721.5" y2="713.5"/><text fill="#000000" font-family="sans-serif" font-size="13" lengthAdjust="spacing" textLength="149" x="435.45" y="617.4951">&#1048;&#1089;&#1087;&#1086;&#1083;&#1100;&#1079;&#1091;&#1077;&#1090;&#1089;&#1103; &#1082;&#1083;&#1080;&#1077;&#1085;&#1090;&#1072;&#1084;&#1080;</text></g><!--link box to carwash--><g id="link_box_carwash"><path codeLine="45" d="M529.45,725.5 C389.51,725.5 405.38,869.5 265.45,869.5 " fill="none" id="box-carwash" style="stroke:#181818;stroke-width:1.0;"/><line style="stroke:#181818;stroke-width:1.0;" x1="529.45" x2="537.45" y1="725.5" y2="719.5"/><line style="stroke:#181818;stroke-width:1.0;" x1="529.45" x2="537.45" y1="725.5" y2="731.5"/><line style="stroke:#181818;stroke-width:1.0;" x1="529.45" x2="537.45" y1="725.5" y2="725.5"/><line style="stroke:#181818;stroke-width:1.0;" x1="527.45" x2="527.45" y1="721.5" y2="729.5"/><line style="stroke:#181818;stroke-width:1.0;" x1="261.45" x2="261.45" y1="873.5" y2="865.5"/><line style="stroke:#181818;stroke-width:1.0;" x1="264.45" x2="264.45" y1="873.5" y2="865.5"/><line style="stroke:#181818;stroke-width:1.0;" x1="265.45" x2="257.45" y1="869.5" y2="869.5"/><text fill="#000000" font-family="sans-serif" font-size="13" lengthAdjust="spacing" textLength="80" x="424.45" y="786.4951">&#1055;&#1088;&#1080;&#1085;&#1072;&#1076;&#1083;&#1077;&#1078;&#1080;&#1090;</text></g><!--link timeslot to box--><g id="link_timeslot_box"><path codeLine="53" d="M591.45,503.5 C498.23,503.5 772.67,700.5 679.45,700.5 " fill="none" id="timeslot-box" style="stroke:#181818;stroke-width:1.0;"/><line style="stroke:#181818;stroke-width:1.0;" x1="591.45" x2="599.45" y1="503.5" y2="497.5"/><line style="stroke:#181818;stroke-width:1.0;" x1="591.45" x2="599.45" y1="503.5" y2="509.5"/><line style="stroke:#181818;stroke-width:1.0;" x1="591.45" x2="599.45" y1="503.5" y2="503.5"/><line style="stroke:#181818;stroke-width:1.0;" x1="589.45" x2="589.45" y1="499.5" y2="507.5"/><line style="stroke:#181818;stroke-width:1.0;" x1="675.45" x2="675.45" y1="704.5" y2="696.5"/><line style="stroke:#181818;stroke-width:1.0;" x1="678.45" x2="678.45" y1="704.5" y2="696.5"/><line style="stroke:#181818;stroke-width:1.0;" x1="679.45" x2="671.45" y1="700.5" y2="700.5"/><text fill="#000000" font-family="sans-serif" font-size="13" lengthAdjust="spacing" textLength="80" x="649.45" y="617.4951">&#1047;&#1072;&#1082;&#1088;&#1077;&#1087;&#1083;&#1077;&#1085; &#1079;&#1072;</text></g><!--link carwash_service to carwash--><g id="link_carwash_service_carwash"><path codeLine="67" d="M24.45,52.5 C6,52.5 31.81,75.62 33.45,94 C39.38,160.74 56.45,175.99 56.45,243 C56.45,243 56.45,243 56.45,697.5 C56.45,785.48 58.46,869.5 146.45,869.5 " fill="none" id="carwash_service-carwash" style="stroke:#181818;stroke-width:1.0;"/><line style="stroke:#181818;stroke-width:1.0;" x1="24.45" x2="32.45" y1="52.5" y2="46.5"/><line style="stroke:#181818;stroke-width:1.0;" x1="24.45" x2="32.45" y1="52.5" y2="58.5"/><line style="stroke:#181818;stroke-width:1.0;" x1="24.45" x2="32.45" y1="52.5" y2="52.5"/><line style="stroke:#181818;stroke-width:1.0;" x1="22.45" x2="22.45" y1="48.5" y2="56.5"/><line style="stroke:#181818;stroke-width:1.0;" x1="150.45" x2="150.45" y1="865.5" y2="873.5"/><line style="stroke:#181818;stroke-width:1.0;" x1="147.45" x2="147.45" y1="865.5" y2="873.5"/><line style="stroke:#181818;stroke-width:1.0;" x1="146.45" x2="154.45" y1="869.5" y2="869.5"/><text fill="#000000" font-family="sans-serif" font-size="13" lengthAdjust="spacing" textLength="90" x="57.45" y="488.9951">&#1055;&#1088;&#1077;&#1076;&#1086;&#1089;&#1090;&#1072;&#1074;&#1083;&#1103;&#1077;&#1090;</text></g><!--link carwash_service to service--><g id="link_carwash_service_service"><path codeLine="68" d="M174.45,69.5 C185.34,69.5 170.68,84.44 165.45,94 C154.25,114.44 133.22,103.34 122.45,124 C97.17,172.45 75.77,238 160.45,238 " fill="none" id="carwash_service-service" style="stroke:#181818;stroke-width:1.0;"/><line style="stroke:#181818;stroke-width:1.0;" x1="174.45" x2="166.45" y1="69.5" y2="75.5"/><line style="stroke:#181818;stroke-width:1.0;" x1="174.45" x2="166.45" y1="69.5" y2="63.5"/><line style="stroke:#181818;stroke-width:1.0;" x1="174.45" x2="166.45" y1="69.5" y2="69.5"/><line style="stroke:#181818;stroke-width:1.0;" x1="176.45" x2="176.45" y1="73.5" y2="65.5"/><line style="stroke:#181818;stroke-width:1.0;" x1="164.45" x2="164.45" y1="234" y2="242"/><line style="stroke:#181818;stroke-width:1.0;" x1="161.45" x2="161.45" y1="234" y2="242"/><line style="stroke:#181818;stroke-width:1.0;" x1="160.45" x2="168.45" y1="238" y2="238"/><text fill="#000000" font-family="sans-serif" font-size="13" lengthAdjust="spacing" textLength="122" x="123.45" y="138.4951">&#1055;&#1088;&#1077;&#1076;&#1086;&#1089;&#1090;&#1072;&#1074;&#1083;&#1103;&#1077;&#1090;&#1089;&#1103; &#1085;&#1072;</text></g><!--link employee to position--><g id="link_employee_position"><path codeLine="85" d="M771.45,299 C877.14,299 1022.14,487.5 916.45,487.5 " fill="none" id="employee-position" style="stroke:#181818;stroke-width:1.0;"/><line style="stroke:#181818;stroke-width:1.0;" x1="771.45" x2="763.45" y1="299" y2="305"/><line style="stroke:#181818;stroke-width:1.0;" x1="771.45" x2="763.45" y1="299" y2="293"/><line style="stroke:#181818;stroke-width:1.0;" x1="771.45" x2="763.45" y1="299" y2="299"/><line style="stroke:#181818;stroke-width:1.0;" x1="773.45" x2="773.45" y1="303" y2="295"/><line style="stroke:#181818;stroke-width:1.0;" x1="912.45" x2="912.45" y1="491.5" y2="483.5"/><line style="stroke:#181818;stroke-width:1.0;" x1="915.45" x2="915.45" y1="491.5" y2="483.5"/><line style="stroke:#181818;stroke-width:1.0;" x1="916.45" x2="908.45" y1="487.5" y2="487.5"/><text fill="#000000" font-family="sans-serif" font-size="13" lengthAdjust="spacing" textLength="82" x="886.45" y="360.4951">&#1053;&#1072;&#1093;&#1086;&#1076;&#1080;&#1090;&#1089;&#1103; &#1085;&#1072;</text></g><!--link order to client--><g id="link_order_client"><path codeLine="94" d="M406.45,255 C382.89,255 390,459.5 366.45,459.5 " fill="none" id="order-client" style="stroke:#181818;stroke-width:1.0;"/><line style="stroke:#181818;stroke-width:1.0;" x1="406.45" x2="414.45" y1="255" y2="249"/><line style="stroke:#181818;stroke-width:1.0;" x1="406.45" x2="414.45" y1="255" y2="261"/><line style="stroke:#181818;stroke-width:1.0;" x1="406.45" x2="414.45" y1="255" y2="255"/><line style="stroke:#181818;stroke-width:1.0;" x1="404.45" x2="404.45" y1="251" y2="259"/><line style="stroke:#181818;stroke-width:1.0;" x1="362.45" x2="362.45" y1="463.5" y2="455.5"/><line style="stroke:#181818;stroke-width:1.0;" x1="365.45" x2="365.45" y1="463.5" y2="455.5"/><line style="stroke:#181818;stroke-width:1.0;" x1="366.45" x2="358.45" y1="459.5" y2="459.5"/><text fill="#000000" font-family="sans-serif" font-size="13" lengthAdjust="spacing" textLength="89" x="389.45" y="360.4951">&#1054;&#1092;&#1086;&#1088;&#1084;&#1083;&#1077;&#1085; &#1076;&#1083;&#1103;</text></g><!--link order to vehicle--><g id="link_order_vehicle"><path codeLine="95" d="M552.45,273 C567.56,273 550.21,293.48 543.45,307 C528.5,336.88 477.39,335.27 494.45,364 C508.66,387.94 534.99,370.2 549.45,394 C560.64,412.43 580.01,442.5 558.45,442.5 " fill="none" id="order-vehicle" style="stroke:#181818;stroke-width:1.0;"/><line style="stroke:#181818;stroke-width:1.0;" x1="552.45" x2="544.45" y1="273" y2="279"/><line style="stroke:#181818;stroke-width:1.0;" x1="552.45" x2="544.45" y1="273" y2="267"/><line style="stroke:#181818;stroke-width:1.0;" x1="552.45" x2="544.45" y1="273" y2="273"/><line style="stroke:#181818;stroke-width:1.0;" x1="554.45" x2="554.45" y1="277" y2="269"/><line style="stroke:#181818;stroke-width:1.0;" x1="554.45" x2="554.45" y1="446.5" y2="438.5"/><line style="stroke:#181818;stroke-width:1.0;" x1="557.45" x2="557.45" y1="446.5" y2="438.5"/><line style="stroke:#181818;stroke-width:1.0;" x1="558.45" x2="550.45" y1="442.5" y2="442.5"/><text fill="#000000" font-family="sans-serif" font-size="13" lengthAdjust="spacing" textLength="105" x="495.45" y="360.4951">&#1042;&#1099;&#1087;&#1086;&#1083;&#1085;&#1103;&#1077;&#1090;&#1089;&#1103; &#1076;&#1083;&#1103;</text></g><!--link order to timeslot--><g id="link_order_timeslot"><path codeLine="96" d="M559.45,290 C596.25,290 590.64,312.31 605.45,346 C628.98,399.56 532.94,477.5 591.45,477.5 " fill="none" id="order-timeslot" style="stroke:#181818;stroke-width:1.0;"/><line style="stroke:#181818;stroke-width:1.0;" x1="555.45" x2="544.45" y1="290" y2="290"/><ellipse cx="555.45" cy="290" fill="none" rx="4" ry="4" style="stroke:#181818;stroke-width:1.0;"/><line style="stroke:#181818;stroke-width:1.0;" x1="548.45" x2="548.45" y1="294" y2="286"/><line style="stroke:#181818;stroke-width:1.0;" x1="595.45" x2="595.45" y1="473.5" y2="481.5"/><line style="stroke:#181818;stroke-width:1.0;" x1="592.45" x2="592.45" y1="473.5" y2="481.5"/><line style="stroke:#181818;stroke-width:1.0;" x1="591.45" x2="599.45" y1="477.5" y2="477.5"/><text fill="#000000" font-family="sans-serif" font-size="13" lengthAdjust="spacing" textLength="151" x="610.45" y="360.4951">&#1042;&#1099;&#1087;&#1086;&#1083;&#1085;&#1103;&#1077;&#1090;&#1089;&#1103; &#1082;&#1086;&#1075;&#1076;&#1072; &#1080; &#1075;&#1076;&#1077;</text></g><!--link order_employee to order--><g id="link_order_employee_order"><path codeLine="103" d="M534.45,52.5 C456,52.5 630.9,229 552.45,229 " fill="none" id="order_employee-order" style="stroke:#181818;stroke-width:1.0;"/><line style="stroke:#181818;stroke-width:1.0;" x1="534.45" x2="542.45" y1="52.5" y2="46.5"/><line style="stroke:#181818;stroke-width:1.0;" x1="534.45" x2="542.45" y1="52.5" y2="58.5"/><line style="stroke:#181818;stroke-width:1.0;" x1="534.45" x2="542.45" y1="52.5" y2="52.5"/><line style="stroke:#181818;stroke-width:1.0;" x1="532.45" x2="532.45" y1="48.5" y2="56.5"/><line style="stroke:#181818;stroke-width:1.0;" x1="548.45" x2="548.45" y1="233" y2="225"/><line style="stroke:#181818;stroke-width:1.0;" x1="551.45" x2="551.45" y1="233" y2="225"/><line style="stroke:#181818;stroke-width:1.0;" x1="552.45" x2="544.45" y1="229" y2="229"/><text fill="#000000" font-family="sans-serif" font-size="13" lengthAdjust="spacing" textLength="105" x="544.45" y="138.4951">&#1042;&#1099;&#1087;&#1086;&#1083;&#1085;&#1103;&#1077;&#1090;&#1089;&#1103; &#1082;&#1077;&#1084;</text></g><!--link order_employee to employee--><g id="link_order_employee_employee"><path codeLine="104" d="M693.45,69.5 C736.73,69.5 728.0195,116.2048 717.5395,164.1148 " fill="none" id="order_employee-employee" style="stroke:#181818;stroke-width:1.0;"/><line style="stroke:#181818;stroke-width:1.0;" x1="693.45" x2="685.45" y1="69.5" y2="75.5"/><line style="stroke:#181818;stroke-width:1.0;" x1="693.45" x2="685.45" y1="69.5" y2="63.5"/><line style="stroke:#181818;stroke-width:1.0;" x1="693.45" x2="685.45" y1="69.5" y2="69.5"/><line style="stroke:#181818;stroke-width:1.0;" x1="695.45" x2="695.45" y1="73.5" y2="65.5"/><line style="stroke:#181818;stroke-width:1.0;" x1="720.5924" x2="712.7772" y1="168.8772" y2="167.1676"/><line style="stroke:#181818;stroke-width:1.0;" x1="721.2334" x2="713.4182" y1="165.9465" y2="164.2369"/><line style="stroke:#181818;stroke-width:1.0;" x1="717.5395" x2="715.83" y1="164.1148" y2="171.93"/><text fill="#000000" font-family="sans-serif" font-size="13" lengthAdjust="spacing" textLength="92" x="723.45" y="138.4951">:&#1042;&#1099;&#1087;&#1086;&#1083;&#1085;&#1103;&#1077;&#1090; &#1095;&#1090;&#1086;</text></g><!--link order_service to order--><g id="link_order_service_order"><path codeLine="111" d="M378.45,52.5 C459.29,52.5 325.6,229 406.45,229 " fill="none" id="order_service-order" style="stroke:#181818;stroke-width:1.0;"/><line style="stroke:#181818;stroke-width:1.0;" x1="378.45" x2="370.45" y1="52.5" y2="58.5"/><line style="stroke:#181818;stroke-width:1.0;" x1="378.45" x2="370.45" y1="52.5" y2="46.5"/><line style="stroke:#181818;stroke-width:1.0;" x1="378.45" x2="370.45" y1="52.5" y2="52.5"/><line style="stroke:#181818;stroke-width:1.0;" x1="380.45" x2="380.45" y1="56.5" y2="48.5"/><line style="stroke:#181818;stroke-width:1.0;" x1="410.45" x2="410.45" y1="225" y2="233"/><line style="stroke:#181818;stroke-width:1.0;" x1="407.45" x2="407.45" y1="225" y2="233"/><line style="stroke:#181818;stroke-width:1.0;" x1="406.45" x2="414.45" y1="229" y2="229"/><text fill="#000000" font-family="sans-serif" font-size="13" lengthAdjust="spacing" textLength="58" x="396.45" y="138.4951">&#1042;&#1082;&#1083;&#1102;&#1095;&#1072;&#1077;&#1090;</text></g><!--link order_service to service--><g id="link_order_service_service"><path codeLine="112" d="M235.45,69.5 C224.55,69.5 242.23,83.33 244.45,94 C253.72,138.77 272.61,145.13 281.45,190 C285.57,210.94 311.78,238 290.45,238 " fill="none" id="order_service-service" style="stroke:#181818;stroke-width:1.0;"/><line style="stroke:#181818;stroke-width:1.0;" x1="235.45" x2="243.45" y1="69.5" y2="63.5"/><line style="stroke:#181818;stroke-width:1.0;" x1="235.45" x2="243.45" y1="69.5" y2="75.5"/><line style="stroke:#181818;stroke-width:1.0;" x1="235.45" x2="243.45" y1="69.5" y2="69.5"/><line style="stroke:#181818;stroke-width:1.0;" x1="233.45" x2="233.45" y1="65.5" y2="73.5"/><line style="stroke:#181818;stroke-width:1.0;" x1="286.45" x2="286.45" y1="242" y2="234"/><line style="stroke:#181818;stroke-width:1.0;" x1="289.45" x2="289.45" y1="242" y2="234"/><line style="stroke:#181818;stroke-width:1.0;" x1="290.45" x2="282.45" y1="238" y2="238"/><text fill="#000000" font-family="sans-serif" font-size="13" lengthAdjust="spacing" textLength="71" x="264.45" y="138.4951">&#1042;&#1082;&#1083;&#1102;&#1095;&#1077;&#1085;&#1072; &#1074;</text></g><!--SRC=[hLNjRjCm5FtTF8MrFvCwzGNy4Bn2bJNUQYs9gyGjHEkaRO26nCG4GW8XFiKBb6rXfLlBAzXlnFL7QgS95J_uKIcsxptttEFZsrsK7z5q56PXWcAQ4bwC268P7x9W5yNaW2FEK4OFXnn5D2C3JbaQ12Jbb1TeHtmGzs8kIh6KvpiepD4Wfd26ZeDEbqOOZSSq2Zgz7YmFQ9RpVXec1AESPpGzXCquREoDGfwnj4YygD6GfQIVZfDzagstJpmM7yLClW0UIp7JB2PaI0SnQQCneQc7VCWcZ-gmdMuI7laK4nQHs5iN98JeCKqvBFPPL2Z5MbbvskmrA1gX-eCmqopjqf7jsXxwDVu0Ro8nfj5qskjDZnqGnWv5V14hSIylnPryAafvBi_a5H8FZWHypmDRentC8o3UopFnkmrnuNgqcFwjhCGlYB0DXzdZC1-stSa0ubsVleIl0M8XppJ0FdlYahNy9jdW-laG2LgizqzKQrExLhs2ElBKod0B3PJYfvZBSw_kDzXTMKjpcf0yPgscXafznwUhGtcOZ32AGaxK4kXK01YRSCD7arHStW6B1V0fGM75POd4dPXvPBw3-FSW-erLCYVPX0vQtHsDir2zKAnPAtLOpZ5AuFqK6o_6tirU0xuIpY_J4BdJjSUR_jp8_eTxAE4ELk0cPQ1hO7AbtDN4SVKCplfWAuvnwLBfwPf_gvmCTxuqyV9IzprYELNQjUbQ6r6-Zb-Xs0zb5G2RYuK68iaePWKX_tiAMdw-qwjI67kdHfzgmmZq2Lx-SsZxLXdT4sNTY7OX_Evq2ooBIDRwLFzXJdKhm_jCDQ8teQmPriCCYy_o6GXv2aF4le9RTObLeYjZChtHXSKR-TAC9vX3thNN03nIKwOGtBFS0h60hHi0cY4nH_ghR1DjhzK8kdA_PWUpvMbLdMw-eteknbMYwTxsj9LuAHuQA5ur0-IEca18Na0xg_P-DwU6gUJFZ4QhVvaOjSnjZQe_6_bANW01DI4syhRE1vTRAjyZSHty0G00]--></g></svg>