<?xml version="1.0" encoding="us-ascii" standalone="no"?><svg xmlns="http://www.w3.org/2000/svg" xmlns:xlink="http://www.w3.org/1999/xlink" contentStyleType="text/css" height="599px" preserveAspectRatio="none" style="width:244px;height:599px;background:#FFFFFF;" version="1.1" viewBox="0 0 244 599" width="244px" zoomAndPan="magnify"><defs/><g><ellipse cx="106.25" cy="20" fill="#222222" rx="10" ry="10" style="stroke:#222222;stroke-width:1.0;"/><rect fill="#F1F1F1" height="35.0938" rx="12.5" ry="12.5" style="stroke:#181818;stroke-width:0.5;" width="63" x="74.75" y="50"/><text fill="#000000" font-family="sans-serif" font-size="12" lengthAdjust="spacing" textLength="43" x="84.75" y="72.457">&#1053;&#1072;&#1095;&#1072;&#1083;&#1086;</text><rect fill="#F1F1F1" height="35.0938" rx="12.5" ry="12.5" style="stroke:#181818;stroke-width:0.5;" width="75" x="68.75" y="105.0938"/><text fill="#000000" font-family="sans-serif" font-size="12" lengthAdjust="spacing" textLength="55" x="78.75" y="127.5508">&#1063;&#1077;&#1088;&#1085;&#1086;&#1074;&#1080;&#1082;</text><polygon fill="#F1F1F1" points="69.25,160.1875,143.25,160.1875,155.25,172.1875,143.25,184.1875,69.25,184.1875,57.25,172.1875,69.25,160.1875" style="stroke:#181818;stroke-width:0.5;"/><text fill="#000000" font-family="sans-serif" font-size="11" lengthAdjust="spacing" textLength="19" x="110.25" y="195.6064">&#1053;&#1077;&#1090;</text><text fill="#000000" font-family="sans-serif" font-size="11" lengthAdjust="spacing" textLength="74" x="69.25" y="176.6885">&#1055;&#1086;&#1076;&#1090;&#1074;&#1077;&#1088;&#1076;&#1080;&#1090;&#1100;?</text><rect fill="#F1F1F1" height="35.0938" rx="12.5" ry="12.5" style="stroke:#181818;stroke-width:0.5;" width="82" x="65.25" y="255.1055"/><text fill="#000000" font-family="sans-serif" font-size="12" lengthAdjust="spacing" textLength="62" x="75.25" y="277.5625">&#1054;&#1092;&#1086;&#1088;&#1084;&#1083;&#1077;&#1085;</text><polygon fill="#F1F1F1" points="77.25,310.1992,135.25,310.1992,147.25,322.1992,135.25,334.1992,77.25,334.1992,65.25,322.1992,77.25,310.1992" style="stroke:#181818;stroke-width:0.5;"/><text fill="#000000" font-family="sans-serif" font-size="11" lengthAdjust="spacing" textLength="58" x="77.25" y="326.7002">&#1054;&#1090;&#1084;&#1077;&#1085;&#1080;&#1090;&#1100;?</text><text fill="#000000" font-family="sans-serif" font-size="11" lengthAdjust="spacing" textLength="14" x="51.25" y="319.7822">&#1044;&#1072;</text><text fill="#000000" font-family="sans-serif" font-size="11" lengthAdjust="spacing" textLength="19" x="147.25" y="319.7822">&#1053;&#1077;&#1090;</text><rect fill="#F1F1F1" height="35.0938" rx="12.5" ry="12.5" style="stroke:#181818;stroke-width:0.5;" width="71" x="11" y="344.1992"/><text fill="#000000" font-family="sans-serif" font-size="12" lengthAdjust="spacing" textLength="51" x="21" y="366.6563">&#1054;&#1090;&#1084;&#1077;&#1085;&#1077;&#1085;</text><ellipse cx="46.5" cy="425.293" fill="none" rx="11" ry="11" style="stroke:#222222;stroke-width:1.0;"/><ellipse cx="46.5" cy="425.293" fill="#222222" rx="6" ry="6" style="stroke:#222222;stroke-width:1.0;"/><polygon fill="#F1F1F1" points="138,344.1992,194,344.1992,206,356.1992,194,368.1992,138,368.1992,126,356.1992,138,344.1992" style="stroke:#181818;stroke-width:0.5;"/><text fill="#000000" font-family="sans-serif" font-size="11" lengthAdjust="spacing" textLength="19" x="170" y="379.6182">&#1053;&#1077;&#1090;</text><text fill="#000000" font-family="sans-serif" font-size="11" lengthAdjust="spacing" textLength="56" x="138" y="360.7002">&#1054;&#1087;&#1083;&#1072;&#1090;&#1080;&#1090;&#1100;?</text><rect fill="#F1F1F1" height="35.0938" rx="12.5" ry="12.5" style="stroke:#181818;stroke-width:0.5;" width="97" x="117.5" y="456.293"/><text fill="#000000" font-family="sans-serif" font-size="12" lengthAdjust="spacing" textLength="77" x="127.5" y="478.75">&#1042;&#1099;&#1087;&#1086;&#1083;&#1085;&#1103;&#1077;&#1090;&#1089;&#1103;</text><rect fill="#F1F1F1" height="35.0938" rx="12.5" ry="12.5" style="stroke:#181818;stroke-width:0.5;" width="77" x="127.5" y="511.3867"/><text fill="#000000" font-family="sans-serif" font-size="12" lengthAdjust="spacing" textLength="57" x="137.5" y="533.8438">&#1047;&#1072;&#1074;&#1077;&#1088;&#1096;&#1077;&#1085;</text><ellipse cx="166" cy="577.4805" fill="none" rx="11" ry="11" style="stroke:#222222;stroke-width:1.0;"/><ellipse cx="166" cy="577.4805" fill="#222222" rx="6" ry="6" style="stroke:#222222;stroke-width:1.0;"/><line style="stroke:#181818;stroke-width:1.0;" x1="106.25" x2="106.25" y1="30" y2="50"/><polygon fill="#181818" points="102.25,40,106.25,50,110.25,40,106.25,44" style="stroke:#181818;stroke-width:1.0;"/><line style="stroke:#181818;stroke-width:1.0;" x1="106.25" x2="106.25" y1="85.0938" y2="105.0938"/><polygon fill="#181818" points="102.25,95.0938,106.25,105.0938,110.25,95.0938,106.25,99.0938" style="stroke:#181818;stroke-width:1.0;"/><line style="stroke:#181818;stroke-width:1.0;" x1="106.25" x2="106.25" y1="184.1875" y2="223.1055"/><line style="stroke:#181818;stroke-width:1.0;" x1="106.25" x2="167.25" y1="223.1055" y2="223.1055"/><polygon fill="#181818" points="163.25,213.1055,167.25,203.1055,171.25,213.1055,167.25,209.1055" style="stroke:#181818;stroke-width:1.0;"/><line style="stroke:#181818;stroke-width:1.0;" x1="167.25" x2="167.25" y1="172.1875" y2="223.1055"/><line style="stroke:#181818;stroke-width:1.0;" x1="167.25" x2="155.25" y1="172.1875" y2="172.1875"/><polygon fill="#181818" points="165.25,168.1875,155.25,172.1875,165.25,176.1875,161.25,172.1875" style="stroke:#181818;stroke-width:1.0;"/><line style="stroke:#181818;stroke-width:1.0;" x1="57.25" x2="45.25" y1="172.1875" y2="172.1875"/><polygon fill="#181818" points="41.25,199.1055,45.25,209.1055,49.25,199.1055,45.25,203.1055" style="stroke:#181818;stroke-width:1.0;"/><line style="stroke:#181818;stroke-width:1.0;" x1="45.25" x2="45.25" y1="172.1875" y2="235.1055"/><line style="stroke:#181818;stroke-width:1.0;" x1="45.25" x2="106.25" y1="235.1055" y2="235.1055"/><line style="stroke:#181818;stroke-width:1.0;" x1="106.25" x2="106.25" y1="235.1055" y2="255.1055"/><polygon fill="#181818" points="102.25,245.1055,106.25,255.1055,110.25,245.1055,106.25,249.1055" style="stroke:#181818;stroke-width:1.0;"/><line style="stroke:#181818;stroke-width:1.0;" x1="106.25" x2="106.25" y1="140.1875" y2="160.1875"/><polygon fill="#181818" points="102.25,150.1875,106.25,160.1875,110.25,150.1875,106.25,154.1875" style="stroke:#181818;stroke-width:1.0;"/><line style="stroke:#181818;stroke-width:1.0;" x1="46.5" x2="46.5" y1="379.293" y2="414.293"/><polygon fill="#181818" points="42.5,404.293,46.5,414.293,50.5,404.293,46.5,408.293" style="stroke:#181818;stroke-width:1.0;"/><line style="stroke:#181818;stroke-width:1.0;" x1="166" x2="166" y1="368.1992" y2="418.0352"/><line style="stroke:#181818;stroke-width:1.0;" x1="166" x2="218" y1="418.0352" y2="418.0352"/><polygon fill="#181818" points="214,397.1172,218,387.1172,222,397.1172,218,393.1172" style="stroke:#181818;stroke-width:1.0;"/><line style="stroke:#181818;stroke-width:1.0;" x1="218" x2="218" y1="356.1992" y2="418.0352"/><line style="stroke:#181818;stroke-width:1.0;" x1="218" x2="206" y1="356.1992" y2="356.1992"/><polygon fill="#181818" points="216,352.1992,206,356.1992,216,360.1992,212,356.1992" style="stroke:#181818;stroke-width:1.0;"/><line style="stroke:#181818;stroke-width:1.0;" x1="126" x2="114" y1="356.1992" y2="356.1992"/><polygon fill="#181818" points="110,383.1172,114,393.1172,118,383.1172,114,387.1172" style="stroke:#181818;stroke-width:1.0;"/><line style="stroke:#181818;stroke-width:1.0;" x1="114" x2="114" y1="356.1992" y2="430.0352"/><line style="stroke:#181818;stroke-width:1.0;" x1="114" x2="166" y1="430.0352" y2="430.0352"/><line style="stroke:#181818;stroke-width:1.0;" x1="166" x2="166" y1="430.0352" y2="456.293"/><polygon fill="#181818" points="162,446.293,166,456.293,170,446.293,166,450.293" style="stroke:#181818;stroke-width:1.0;"/><line style="stroke:#181818;stroke-width:1.0;" x1="166" x2="166" y1="491.3867" y2="511.3867"/><polygon fill="#181818" points="162,501.3867,166,511.3867,170,501.3867,166,505.3867" style="stroke:#181818;stroke-width:1.0;"/><line style="stroke:#181818;stroke-width:1.0;" x1="166" x2="166" y1="546.4805" y2="566.4805"/><polygon fill="#181818" points="162,556.4805,166,566.4805,170,556.4805,166,560.4805" style="stroke:#181818;stroke-width:1.0;"/><line style="stroke:#181818;stroke-width:1.0;" x1="65.25" x2="46.5" y1="322.1992" y2="322.1992"/><line style="stroke:#181818;stroke-width:1.0;" x1="46.5" x2="46.5" y1="322.1992" y2="344.1992"/><polygon fill="#181818" points="42.5,334.1992,46.5,344.1992,50.5,334.1992,46.5,338.1992" style="stroke:#181818;stroke-width:1.0;"/><line style="stroke:#181818;stroke-width:1.0;" x1="147.25" x2="166" y1="322.1992" y2="322.1992"/><line style="stroke:#181818;stroke-width:1.0;" x1="166" x2="166" y1="322.1992" y2="344.1992"/><polygon fill="#181818" points="162,334.1992,166,344.1992,170,334.1992,166,338.1992" style="stroke:#181818;stroke-width:1.0;"/><line style="stroke:#181818;stroke-width:1.0;" x1="106.25" x2="106.25" y1="290.1992" y2="310.1992"/><polygon fill="#181818" points="102.25,300.1992,106.25,310.1992,110.25,300.1992,106.25,304.1992" style="stroke:#181818;stroke-width:1.0;"/><!--SRC=[RL1D2e905DxFATuohw2BpX8ueY0MARGj2GeAWWXQQSks4WfIQbVuterw3cG5BUVxVnCdatcYb8qC1MzGu87EaUSL5I_HeiCDDUwEKWi_23MDS16iv5JmNb6YvfJtOuk2MCXCmDHIEdADl0_EUOrEb8r4LsWbAV14cKj4qmD3GEBhI8WJ2aiHsLyAOoEAa-bCwJ3MdoAYzwmSJoaenFDl4D4mYSYa7tadZauyBHzw4Q_uu1ZgBDzWhkFjRtNa1fvw0G00]--></g></svg>